<mxfile host="app.diagrams.net" modified="2023-04-19T23:15:56.016Z" agent="Mozilla/5.0 (Windows NT 10.0; Win64; x64) AppleWebKit/537.36 (KHTML, like Gecko) Chrome/112.0.0.0 Safari/537.36" etag="xl9prExN6UE5HqBn4ROL" version="21.1.8" type="device">
  <diagram name="Página-1" id="-cIdjegcSLyxtcj_iW46">
    <mxGraphModel dx="2050" dy="2121" grid="1" gridSize="10" guides="1" tooltips="1" connect="1" arrows="1" fold="1" page="1" pageScale="1" pageWidth="827" pageHeight="1169" math="0" shadow="0">
      <root>
        <mxCell id="0" />
        <mxCell id="1" parent="0" />
        <mxCell id="mC--ASIjoSLV11D7QunK-116" value="Caso de estudio: CineZoom, startup del sector cinematográfico y entretenimiento&amp;nbsp;que requiere crear una solución tecnológica que provea soporte al core de su negocio. Mostrar la cartelera de las películas que se transmiten, administrar la información de sus clientes, oferta de productos (entradas, dulces, souvenirs, merchandising), transacciones de compra, información y políticas de la empresa, puntuación de películas con la posibilidad de ser re-estrenadas en el cine y otros&amp;nbsp; procesos operativos." style="rounded=0;whiteSpace=wrap;html=1;fontStyle=1" parent="1" vertex="1">
          <mxGeometry y="-290" width="530" height="130" as="geometry" />
        </mxCell>
        <mxCell id="KEB4Dp1MF8ZIiS9gSXZJ-14" value="MAVEN PACKAGE STRUCTURE" style="text;html=1;strokeColor=none;fillColor=none;align=center;verticalAlign=middle;whiteSpace=wrap;rounded=0;fontStyle=1" vertex="1" parent="1">
          <mxGeometry x="934" y="99.99999999999999" width="231.66" height="30" as="geometry" />
        </mxCell>
        <mxCell id="KEB4Dp1MF8ZIiS9gSXZJ-16" value="1:N" style="edgeStyle=orthogonalEdgeStyle;rounded=0;orthogonalLoop=1;jettySize=auto;html=1;exitX=1;exitY=0.5;exitDx=0;exitDy=0;entryX=0;entryY=0.5;entryDx=0;entryDy=0;endArrow=none;endFill=0;" edge="1" source="KEB4Dp1MF8ZIiS9gSXZJ-17" target="KEB4Dp1MF8ZIiS9gSXZJ-20" parent="1">
          <mxGeometry relative="1" as="geometry" />
        </mxCell>
        <mxCell id="KEB4Dp1MF8ZIiS9gSXZJ-17" value="&lt;b&gt;&lt;u&gt;Customer&lt;/u&gt;&lt;/b&gt;&lt;br&gt;id: long&lt;br&gt;dni: String&lt;br&gt;name: String&lt;br&gt;lastName: String&lt;br&gt;phone: String&lt;br&gt;address: String&lt;br&gt;username: String&lt;br&gt;password: String&lt;br&gt;state: String&lt;br&gt;transactions: Transaction (*)" style="rounded=0;whiteSpace=wrap;html=1;align=left;verticalAlign=top;" vertex="1" parent="1">
          <mxGeometry x="670" y="-277.5" width="160" height="175" as="geometry" />
        </mxCell>
        <mxCell id="KEB4Dp1MF8ZIiS9gSXZJ-18" value="1:N" style="edgeStyle=orthogonalEdgeStyle;rounded=0;orthogonalLoop=1;jettySize=auto;html=1;exitX=1;exitY=0.75;exitDx=0;exitDy=0;entryX=0;entryY=0.5;entryDx=0;entryDy=0;endArrow=none;endFill=0;" edge="1" source="KEB4Dp1MF8ZIiS9gSXZJ-20" target="KEB4Dp1MF8ZIiS9gSXZJ-28" parent="1">
          <mxGeometry relative="1" as="geometry" />
        </mxCell>
        <mxCell id="KEB4Dp1MF8ZIiS9gSXZJ-19" value="1:N" style="edgeStyle=orthogonalEdgeStyle;rounded=0;orthogonalLoop=1;jettySize=auto;html=1;exitX=1;exitY=0.25;exitDx=0;exitDy=0;entryX=0;entryY=0.5;entryDx=0;entryDy=0;endArrow=none;endFill=0;" edge="1" source="KEB4Dp1MF8ZIiS9gSXZJ-20" target="KEB4Dp1MF8ZIiS9gSXZJ-27" parent="1">
          <mxGeometry relative="1" as="geometry" />
        </mxCell>
        <mxCell id="KEB4Dp1MF8ZIiS9gSXZJ-20" value="&lt;b&gt;&lt;u&gt;Transaction&lt;/u&gt;&lt;/b&gt;&lt;br&gt;id: long&lt;br&gt;dni: String&lt;br&gt;date: LocalDateTime&lt;br&gt;description: String&lt;br&gt;state: String&lt;br&gt;channel: String&lt;br&gt;cinemaCode: String&lt;br&gt;movies: Movie (*)&lt;br&gt;products: Product (*)" style="rounded=0;whiteSpace=wrap;html=1;align=left;verticalAlign=top;" vertex="1" parent="1">
          <mxGeometry x="884.5" y="-280" width="160" height="160" as="geometry" />
        </mxCell>
        <mxCell id="KEB4Dp1MF8ZIiS9gSXZJ-21" value="&lt;b&gt;&lt;u&gt;Movie&lt;br&gt;&lt;/u&gt;&lt;/b&gt;id: long&lt;br&gt;code: String&lt;br&gt;name: String&lt;br&gt;description: String&lt;br&gt;schedule: LocalTime&lt;br&gt;situation: String [enum]&lt;br style=&quot;border-color: var(--border-color);&quot;&gt;price: BigDecimal&lt;br&gt;genre: String&lt;br&gt;duration: String&lt;br&gt;rating: String [restriction]&lt;br&gt;image: String [URL]&lt;br&gt;trailer: String [URL]&lt;br&gt;director: String&lt;br&gt;language: String&lt;br&gt;release: LocalDate&lt;br&gt;state: String&lt;br&gt;vote: int" style="rounded=0;whiteSpace=wrap;html=1;align=left;verticalAlign=top;" vertex="1" parent="1">
          <mxGeometry x="1300" y="-470" width="160" height="270" as="geometry" />
        </mxCell>
        <mxCell id="KEB4Dp1MF8ZIiS9gSXZJ-22" value="&lt;b&gt;&lt;u&gt;Product&lt;br&gt;&lt;/u&gt;&lt;/b&gt;id: long&lt;br&gt;code: String&lt;br&gt;type: String [enum]&lt;br&gt;name: String&lt;br&gt;description: String&lt;br&gt;price: BigDecimal&lt;br&gt;image: String [URL]&lt;br&gt;amount: int&lt;br&gt;state: String" style="rounded=0;whiteSpace=wrap;html=1;align=left;verticalAlign=top;" vertex="1" parent="1">
          <mxGeometry x="1300" y="-180" width="160" height="160" as="geometry" />
        </mxCell>
        <mxCell id="KEB4Dp1MF8ZIiS9gSXZJ-23" value="1:N" style="edgeStyle=orthogonalEdgeStyle;rounded=0;orthogonalLoop=1;jettySize=auto;html=1;entryX=0;entryY=0.5;entryDx=0;entryDy=0;endArrow=none;endFill=0;" edge="1" source="KEB4Dp1MF8ZIiS9gSXZJ-25" target="KEB4Dp1MF8ZIiS9gSXZJ-34" parent="1">
          <mxGeometry relative="1" as="geometry" />
        </mxCell>
        <mxCell id="KEB4Dp1MF8ZIiS9gSXZJ-24" value="1:N" style="edgeStyle=orthogonalEdgeStyle;rounded=0;orthogonalLoop=1;jettySize=auto;html=1;endArrow=none;endFill=0;" edge="1" source="KEB4Dp1MF8ZIiS9gSXZJ-25" target="KEB4Dp1MF8ZIiS9gSXZJ-20" parent="1">
          <mxGeometry relative="1" as="geometry" />
        </mxCell>
        <mxCell id="KEB4Dp1MF8ZIiS9gSXZJ-25" value="&lt;b&gt;&lt;u&gt;Cinema&lt;br&gt;&lt;/u&gt;&lt;/b&gt;id: long&lt;br&gt;cinemaCode:String&lt;br&gt;ruc: String&lt;br&gt;name: String&lt;br&gt;legalName: String&lt;br&gt;description: String&lt;br&gt;phone: String&lt;br&gt;address: String&lt;br&gt;city: String&lt;br&gt;state: String&lt;br&gt;movies: Movie (*)" style="rounded=0;whiteSpace=wrap;html=1;align=left;verticalAlign=top;" vertex="1" parent="1">
          <mxGeometry x="884.5" y="-500" width="160" height="180" as="geometry" />
        </mxCell>
        <mxCell id="KEB4Dp1MF8ZIiS9gSXZJ-33" value="1:N" style="edgeStyle=orthogonalEdgeStyle;rounded=0;orthogonalLoop=1;jettySize=auto;html=1;entryX=0.438;entryY=1.011;entryDx=0;entryDy=0;entryPerimeter=0;endArrow=none;endFill=0;" edge="1" parent="1" source="KEB4Dp1MF8ZIiS9gSXZJ-26" target="KEB4Dp1MF8ZIiS9gSXZJ-17">
          <mxGeometry relative="1" as="geometry" />
        </mxCell>
        <mxCell id="KEB4Dp1MF8ZIiS9gSXZJ-26" value="&lt;b&gt;&lt;u&gt;Billing&lt;br&gt;&lt;/u&gt;&lt;/b&gt;id: long&lt;br&gt;number: String&lt;br&gt;dni: String&lt;br&gt;transactionId: long" style="rounded=0;whiteSpace=wrap;html=1;align=left;verticalAlign=top;" vertex="1" parent="1">
          <mxGeometry x="884.5" y="-80" width="160" height="80" as="geometry" />
        </mxCell>
        <mxCell id="KEB4Dp1MF8ZIiS9gSXZJ-30" value="N:1" style="edgeStyle=orthogonalEdgeStyle;rounded=0;orthogonalLoop=1;jettySize=auto;html=1;exitX=1;exitY=0.5;exitDx=0;exitDy=0;entryX=0;entryY=0.75;entryDx=0;entryDy=0;endArrow=none;endFill=0;" edge="1" parent="1" source="KEB4Dp1MF8ZIiS9gSXZJ-27" target="KEB4Dp1MF8ZIiS9gSXZJ-21">
          <mxGeometry relative="1" as="geometry" />
        </mxCell>
        <mxCell id="KEB4Dp1MF8ZIiS9gSXZJ-27" value="&lt;b&gt;&lt;u&gt;TransactionMovie&lt;br&gt;&lt;/u&gt;&lt;/b&gt;id: long&lt;br&gt;seat: String&lt;br&gt;transactionId: long&lt;br&gt;movieId: long" style="rounded=0;whiteSpace=wrap;html=1;align=left;verticalAlign=top;" vertex="1" parent="1">
          <mxGeometry x="1100" y="-280" width="160" height="80" as="geometry" />
        </mxCell>
        <mxCell id="KEB4Dp1MF8ZIiS9gSXZJ-29" value="N:1" style="edgeStyle=orthogonalEdgeStyle;rounded=0;orthogonalLoop=1;jettySize=auto;html=1;exitX=1;exitY=0.5;exitDx=0;exitDy=0;entryX=0;entryY=0.5;entryDx=0;entryDy=0;endArrow=none;endFill=0;" edge="1" parent="1" source="KEB4Dp1MF8ZIiS9gSXZJ-28" target="KEB4Dp1MF8ZIiS9gSXZJ-22">
          <mxGeometry relative="1" as="geometry" />
        </mxCell>
        <mxCell id="KEB4Dp1MF8ZIiS9gSXZJ-28" value="&lt;b&gt;&lt;u&gt;TransactionProduct&lt;br&gt;&lt;/u&gt;&lt;/b&gt;id: long&lt;br&gt;transactionId: long&lt;br&gt;productId: long" style="rounded=0;whiteSpace=wrap;html=1;align=left;verticalAlign=top;" vertex="1" parent="1">
          <mxGeometry x="1100" y="-180" width="160" height="70" as="geometry" />
        </mxCell>
        <mxCell id="KEB4Dp1MF8ZIiS9gSXZJ-31" value="1:1" style="edgeStyle=orthogonalEdgeStyle;rounded=0;orthogonalLoop=1;jettySize=auto;html=1;endArrow=none;endFill=0;exitX=0.5;exitY=1;exitDx=0;exitDy=0;entryX=0.5;entryY=0;entryDx=0;entryDy=0;" edge="1" parent="1" source="KEB4Dp1MF8ZIiS9gSXZJ-20" target="KEB4Dp1MF8ZIiS9gSXZJ-26">
          <mxGeometry relative="1" as="geometry">
            <mxPoint x="975" y="-310" as="sourcePoint" />
            <mxPoint x="975" y="-270" as="targetPoint" />
          </mxGeometry>
        </mxCell>
        <mxCell id="KEB4Dp1MF8ZIiS9gSXZJ-36" value="N:1" style="edgeStyle=orthogonalEdgeStyle;rounded=0;orthogonalLoop=1;jettySize=auto;html=1;exitX=1;exitY=0.5;exitDx=0;exitDy=0;entryX=0;entryY=0.25;entryDx=0;entryDy=0;endArrow=none;endFill=0;" edge="1" parent="1" source="KEB4Dp1MF8ZIiS9gSXZJ-34" target="KEB4Dp1MF8ZIiS9gSXZJ-21">
          <mxGeometry relative="1" as="geometry" />
        </mxCell>
        <mxCell id="KEB4Dp1MF8ZIiS9gSXZJ-34" value="&lt;b&gt;&lt;u&gt;CinemaMovie&lt;br&gt;&lt;/u&gt;&lt;/b&gt;id: long&lt;br&gt;CinemaId: long&lt;br&gt;movieId: long" style="rounded=0;whiteSpace=wrap;html=1;align=left;verticalAlign=top;" vertex="1" parent="1">
          <mxGeometry x="1100" y="-440" width="160" height="70" as="geometry" />
        </mxCell>
        <mxCell id="KEB4Dp1MF8ZIiS9gSXZJ-104" value="" style="rounded=1;whiteSpace=wrap;html=1;arcSize=6;fillColor=#fff2cc;strokeColor=#d6b656;" vertex="1" parent="1">
          <mxGeometry x="-410" y="220" width="650" height="410" as="geometry" />
        </mxCell>
        <mxCell id="KEB4Dp1MF8ZIiS9gSXZJ-105" style="edgeStyle=orthogonalEdgeStyle;rounded=0;orthogonalLoop=1;jettySize=auto;html=1;exitX=0.5;exitY=1;exitDx=0;exitDy=0;entryX=0.5;entryY=0;entryDx=0;entryDy=0;" edge="1" source="KEB4Dp1MF8ZIiS9gSXZJ-106" target="KEB4Dp1MF8ZIiS9gSXZJ-117" parent="1">
          <mxGeometry relative="1" as="geometry" />
        </mxCell>
        <mxCell id="KEB4Dp1MF8ZIiS9gSXZJ-168" value="Request access token" style="edgeStyle=orthogonalEdgeStyle;rounded=0;orthogonalLoop=1;jettySize=auto;html=1;exitX=0.75;exitY=1;exitDx=0;exitDy=0;entryX=0.5;entryY=0;entryDx=0;entryDy=0;entryPerimeter=0;" edge="1" parent="1" source="KEB4Dp1MF8ZIiS9gSXZJ-106" target="KEB4Dp1MF8ZIiS9gSXZJ-150">
          <mxGeometry relative="1" as="geometry" />
        </mxCell>
        <mxCell id="KEB4Dp1MF8ZIiS9gSXZJ-106" value="INTERNET" style="rounded=1;whiteSpace=wrap;html=1;fillColor=#f8cecc;strokeColor=#b85450;" vertex="1" parent="1">
          <mxGeometry x="-150" y="50" width="160" height="40" as="geometry" />
        </mxCell>
        <mxCell id="KEB4Dp1MF8ZIiS9gSXZJ-107" style="edgeStyle=orthogonalEdgeStyle;rounded=0;orthogonalLoop=1;jettySize=auto;html=1;exitX=0;exitY=0.5;exitDx=0;exitDy=0;entryX=1;entryY=0.5;entryDx=0;entryDy=0;" edge="1" source="KEB4Dp1MF8ZIiS9gSXZJ-109" target="KEB4Dp1MF8ZIiS9gSXZJ-106" parent="1">
          <mxGeometry relative="1" as="geometry" />
        </mxCell>
        <mxCell id="KEB4Dp1MF8ZIiS9gSXZJ-109" value="" style="shape=image;html=1;verticalAlign=top;verticalLabelPosition=bottom;labelBackgroundColor=#ffffff;imageAspect=0;aspect=fixed;image=https://cdn1.iconfinder.com/data/icons/communication-icons-10/750/Untitled-1-07-128.png;clipPath=inset(0.78% 22.66% 0.78% 22.66%);" vertex="1" parent="1">
          <mxGeometry x="50.5" y="51" width="27.222222222222225" height="49" as="geometry" />
        </mxCell>
        <mxCell id="KEB4Dp1MF8ZIiS9gSXZJ-110" style="edgeStyle=orthogonalEdgeStyle;rounded=0;orthogonalLoop=1;jettySize=auto;html=1;entryX=0;entryY=0.5;entryDx=0;entryDy=0;" edge="1" source="KEB4Dp1MF8ZIiS9gSXZJ-112" target="KEB4Dp1MF8ZIiS9gSXZJ-106" parent="1">
          <mxGeometry relative="1" as="geometry" />
        </mxCell>
        <mxCell id="KEB4Dp1MF8ZIiS9gSXZJ-112" value="" style="sketch=0;pointerEvents=1;shadow=0;dashed=0;html=1;strokeColor=none;fillColor=#505050;labelPosition=center;verticalLabelPosition=bottom;verticalAlign=top;outlineConnect=0;align=center;shape=mxgraph.office.devices.workstation_pc;" vertex="1" parent="1">
          <mxGeometry x="-254.5" y="51" width="40" height="49" as="geometry" />
        </mxCell>
        <mxCell id="KEB4Dp1MF8ZIiS9gSXZJ-217" style="edgeStyle=orthogonalEdgeStyle;rounded=0;orthogonalLoop=1;jettySize=auto;html=1;exitX=0.5;exitY=1;exitDx=0;exitDy=0;entryX=0.5;entryY=0;entryDx=0;entryDy=0;" edge="1" parent="1" source="KEB4Dp1MF8ZIiS9gSXZJ-117" target="KEB4Dp1MF8ZIiS9gSXZJ-139">
          <mxGeometry relative="1" as="geometry" />
        </mxCell>
        <mxCell id="KEB4Dp1MF8ZIiS9gSXZJ-117" value="Spring Cloud Gateway (Reverse proxy)" style="rounded=1;whiteSpace=wrap;html=1;fillColor=#ffe6cc;strokeColor=#d79b00;verticalAlign=top;" vertex="1" parent="1">
          <mxGeometry x="-180" y="140" width="220" height="60" as="geometry" />
        </mxCell>
        <mxCell id="KEB4Dp1MF8ZIiS9gSXZJ-129" value="GitHub" style="dashed=0;outlineConnect=0;html=1;align=center;labelPosition=center;verticalLabelPosition=bottom;verticalAlign=top;shape=mxgraph.weblogos.github" vertex="1" parent="1">
          <mxGeometry x="-470" y="304.5000000000001" width="40" height="40" as="geometry" />
        </mxCell>
        <mxCell id="KEB4Dp1MF8ZIiS9gSXZJ-130" style="edgeStyle=orthogonalEdgeStyle;rounded=0;orthogonalLoop=1;jettySize=auto;html=1;exitX=0;exitY=0.5;exitDx=0;exitDy=0;" edge="1" source="KEB4Dp1MF8ZIiS9gSXZJ-144" target="KEB4Dp1MF8ZIiS9gSXZJ-129" parent="1">
          <mxGeometry relative="1" as="geometry">
            <Array as="points">
              <mxPoint x="-420" y="280" />
            </Array>
          </mxGeometry>
        </mxCell>
        <mxCell id="KEB4Dp1MF8ZIiS9gSXZJ-229" style="edgeStyle=orthogonalEdgeStyle;rounded=0;orthogonalLoop=1;jettySize=auto;html=1;exitX=0.5;exitY=0;exitDx=0;exitDy=0;entryX=0;entryY=0.25;entryDx=0;entryDy=0;" edge="1" parent="1" source="KEB4Dp1MF8ZIiS9gSXZJ-144" target="KEB4Dp1MF8ZIiS9gSXZJ-139">
          <mxGeometry relative="1" as="geometry">
            <Array as="points">
              <mxPoint x="-330" y="240" />
              <mxPoint x="-150" y="240" />
              <mxPoint x="-150" y="265" />
            </Array>
          </mxGeometry>
        </mxCell>
        <mxCell id="KEB4Dp1MF8ZIiS9gSXZJ-144" value="SpringConfig" style="rounded=1;whiteSpace=wrap;html=1;verticalAlign=top;fillColor=#b0e3e6;strokeColor=#0e8088;" vertex="1" parent="1">
          <mxGeometry x="-370" y="250.0000000000001" width="80" height="60" as="geometry" />
        </mxCell>
        <mxCell id="KEB4Dp1MF8ZIiS9gSXZJ-145" value="" style="sketch=0;outlineConnect=0;fontColor=#232F3E;gradientColor=none;fillColor=#232F3D;strokeColor=none;dashed=0;verticalLabelPosition=bottom;verticalAlign=top;align=center;html=1;fontSize=12;fontStyle=0;aspect=fixed;pointerEvents=1;shape=mxgraph.aws4.gear;" vertex="1" parent="1">
          <mxGeometry x="-344.5" y="275.5000000000001" width="29" height="29" as="geometry" />
        </mxCell>
        <mxCell id="KEB4Dp1MF8ZIiS9gSXZJ-146" style="edgeStyle=orthogonalEdgeStyle;rounded=0;orthogonalLoop=1;jettySize=auto;html=1;exitX=0;exitY=0.5;exitDx=0;exitDy=0;entryX=1;entryY=0.5;entryDx=0;entryDy=0;strokeColor=#000000;" edge="1" source="KEB4Dp1MF8ZIiS9gSXZJ-148" target="KEB4Dp1MF8ZIiS9gSXZJ-139" parent="1">
          <mxGeometry relative="1" as="geometry">
            <Array as="points" />
          </mxGeometry>
        </mxCell>
        <mxCell id="KEB4Dp1MF8ZIiS9gSXZJ-147" value="Check token" style="edgeStyle=orthogonalEdgeStyle;rounded=0;orthogonalLoop=1;jettySize=auto;html=1;exitX=1;exitY=0.5;exitDx=0;exitDy=0;entryX=0.5;entryY=1;entryDx=0;entryDy=0;entryPerimeter=0;" edge="1" source="KEB4Dp1MF8ZIiS9gSXZJ-148" parent="1">
          <mxGeometry x="-0.4513" relative="1" as="geometry">
            <mxPoint x="261.5" y="209.9999999999999" as="targetPoint" />
            <mxPoint as="offset" />
          </mxGeometry>
        </mxCell>
        <mxCell id="KEB4Dp1MF8ZIiS9gSXZJ-148" value="Keycloak Adapter" style="rounded=1;whiteSpace=wrap;html=1;verticalAlign=top;fillColor=#f8cecc;strokeColor=#b85450;gradientColor=#ea6b66;" vertex="1" parent="1">
          <mxGeometry x="70.25" y="245" width="80" height="70" as="geometry" />
        </mxCell>
        <mxCell id="KEB4Dp1MF8ZIiS9gSXZJ-149" value="" style="sketch=0;outlineConnect=0;fontColor=#232F3E;gradientColor=none;fillColor=#232F3D;strokeColor=none;dashed=0;verticalLabelPosition=bottom;verticalAlign=top;align=center;html=1;fontSize=12;fontStyle=0;aspect=fixed;pointerEvents=1;shape=mxgraph.aws4.gear;" vertex="1" parent="1">
          <mxGeometry x="95.75" y="282.5" width="29" height="29" as="geometry" />
        </mxCell>
        <mxCell id="KEB4Dp1MF8ZIiS9gSXZJ-150" value="Single&lt;br&gt;Sign-On" style="sketch=0;points=[[0,0,0],[0.25,0,0],[0.5,0,0],[0.75,0,0],[1,0,0],[0,1,0],[0.25,1,0],[0.5,1,0],[0.75,1,0],[1,1,0],[0,0.25,0],[0,0.5,0],[0,0.75,0],[1,0.25,0],[1,0.5,0],[1,0.75,0]];outlineConnect=0;fontColor=#232F3E;gradientColor=#F54749;gradientDirection=north;fillColor=#C7131F;strokeColor=#ffffff;dashed=0;verticalLabelPosition=middle;verticalAlign=middle;align=right;html=1;fontSize=12;fontStyle=0;aspect=fixed;shape=mxgraph.aws4.resourceIcon;resIcon=mxgraph.aws4.single_sign_on;labelPosition=left;spacing=2;strokeWidth=1;perimeterSpacing=1;spacingLeft=0;spacingRight=2;" vertex="1" parent="1">
          <mxGeometry x="237.5" y="139.89" width="48" height="48" as="geometry" />
        </mxCell>
        <mxCell id="KEB4Dp1MF8ZIiS9gSXZJ-151" value="" style="sketch=0;outlineConnect=0;fontColor=#232F3E;gradientColor=none;fillColor=#232F3D;strokeColor=none;dashed=0;verticalLabelPosition=bottom;verticalAlign=top;align=center;html=1;fontSize=12;fontStyle=0;aspect=fixed;pointerEvents=1;shape=mxgraph.aws4.gear;" vertex="1" parent="1">
          <mxGeometry x="-84.5" y="165.5" width="29" height="29" as="geometry" />
        </mxCell>
        <mxCell id="KEB4Dp1MF8ZIiS9gSXZJ-152" value="DIAGRAMA DE MICROSERVICIOS" style="text;html=1;strokeColor=none;fillColor=none;align=center;verticalAlign=middle;whiteSpace=wrap;rounded=0;fontStyle=1" vertex="1" parent="1">
          <mxGeometry x="-180" width="220.5" height="30" as="geometry" />
        </mxCell>
        <mxCell id="KEB4Dp1MF8ZIiS9gSXZJ-169" value="" style="image;aspect=fixed;perimeter=ellipsePerimeter;html=1;align=center;shadow=0;dashed=0;spacingTop=3;image=img/lib/active_directory/database.svg;" vertex="1" parent="1">
          <mxGeometry x="-345" y="480.0000000000002" width="50" height="37" as="geometry" />
        </mxCell>
        <mxCell id="KEB4Dp1MF8ZIiS9gSXZJ-170" value="" style="image;aspect=fixed;perimeter=ellipsePerimeter;html=1;align=center;shadow=0;dashed=0;spacingTop=3;image=img/lib/active_directory/database.svg;" vertex="1" parent="1">
          <mxGeometry x="-245" y="480.0000000000002" width="50" height="37" as="geometry" />
        </mxCell>
        <mxCell id="KEB4Dp1MF8ZIiS9gSXZJ-171" value="" style="image;aspect=fixed;perimeter=ellipsePerimeter;html=1;align=center;shadow=0;dashed=0;spacingTop=3;image=img/lib/active_directory/database.svg;" vertex="1" parent="1">
          <mxGeometry x="-144.5" y="480.0000000000002" width="50" height="37" as="geometry" />
        </mxCell>
        <mxCell id="KEB4Dp1MF8ZIiS9gSXZJ-172" style="edgeStyle=orthogonalEdgeStyle;rounded=0;orthogonalLoop=1;jettySize=auto;html=1;entryX=0.5;entryY=0;entryDx=0;entryDy=0;" edge="1" source="KEB4Dp1MF8ZIiS9gSXZJ-179" target="KEB4Dp1MF8ZIiS9gSXZJ-169" parent="1">
          <mxGeometry relative="1" as="geometry" />
        </mxCell>
        <mxCell id="KEB4Dp1MF8ZIiS9gSXZJ-173" style="edgeStyle=orthogonalEdgeStyle;rounded=0;orthogonalLoop=1;jettySize=auto;html=1;exitX=0.5;exitY=1;exitDx=0;exitDy=0;entryX=0.5;entryY=0;entryDx=0;entryDy=0;" edge="1" source="KEB4Dp1MF8ZIiS9gSXZJ-180" target="KEB4Dp1MF8ZIiS9gSXZJ-170" parent="1">
          <mxGeometry relative="1" as="geometry" />
        </mxCell>
        <mxCell id="KEB4Dp1MF8ZIiS9gSXZJ-174" style="edgeStyle=orthogonalEdgeStyle;rounded=0;orthogonalLoop=1;jettySize=auto;html=1;exitX=0.5;exitY=1;exitDx=0;exitDy=0;entryX=0.5;entryY=0;entryDx=0;entryDy=0;" edge="1" source="KEB4Dp1MF8ZIiS9gSXZJ-182" target="KEB4Dp1MF8ZIiS9gSXZJ-171" parent="1">
          <mxGeometry relative="1" as="geometry" />
        </mxCell>
        <mxCell id="KEB4Dp1MF8ZIiS9gSXZJ-394" style="edgeStyle=orthogonalEdgeStyle;rounded=0;orthogonalLoop=1;jettySize=auto;html=1;" edge="1" parent="1" source="KEB4Dp1MF8ZIiS9gSXZJ-175" target="KEB4Dp1MF8ZIiS9gSXZJ-383">
          <mxGeometry relative="1" as="geometry">
            <Array as="points">
              <mxPoint x="-320" y="550" />
              <mxPoint x="-69" y="550" />
            </Array>
          </mxGeometry>
        </mxCell>
        <mxCell id="KEB4Dp1MF8ZIiS9gSXZJ-175" value="DB" style="text;html=1;strokeColor=none;fillColor=none;align=center;verticalAlign=middle;whiteSpace=wrap;rounded=0;" vertex="1" parent="1">
          <mxGeometry x="-350" y="510.0000000000002" width="60" height="30" as="geometry" />
        </mxCell>
        <mxCell id="KEB4Dp1MF8ZIiS9gSXZJ-393" style="edgeStyle=orthogonalEdgeStyle;rounded=0;orthogonalLoop=1;jettySize=auto;html=1;" edge="1" parent="1" source="KEB4Dp1MF8ZIiS9gSXZJ-176" target="KEB4Dp1MF8ZIiS9gSXZJ-383">
          <mxGeometry relative="1" as="geometry">
            <Array as="points">
              <mxPoint x="-220" y="550" />
              <mxPoint x="-69" y="550" />
            </Array>
          </mxGeometry>
        </mxCell>
        <mxCell id="KEB4Dp1MF8ZIiS9gSXZJ-176" value="DB" style="text;html=1;strokeColor=none;fillColor=none;align=center;verticalAlign=middle;whiteSpace=wrap;rounded=0;" vertex="1" parent="1">
          <mxGeometry x="-250" y="510.0000000000002" width="60" height="30" as="geometry" />
        </mxCell>
        <mxCell id="KEB4Dp1MF8ZIiS9gSXZJ-392" style="edgeStyle=orthogonalEdgeStyle;rounded=0;orthogonalLoop=1;jettySize=auto;html=1;" edge="1" parent="1" source="KEB4Dp1MF8ZIiS9gSXZJ-177" target="KEB4Dp1MF8ZIiS9gSXZJ-383">
          <mxGeometry relative="1" as="geometry">
            <Array as="points">
              <mxPoint x="-120" y="550" />
              <mxPoint x="-69" y="550" />
            </Array>
          </mxGeometry>
        </mxCell>
        <mxCell id="KEB4Dp1MF8ZIiS9gSXZJ-177" value="DB" style="text;html=1;strokeColor=none;fillColor=none;align=center;verticalAlign=middle;whiteSpace=wrap;rounded=0;" vertex="1" parent="1">
          <mxGeometry x="-150" y="510.0000000000002" width="60" height="30" as="geometry" />
        </mxCell>
        <mxCell id="KEB4Dp1MF8ZIiS9gSXZJ-178" value="API REST&lt;br&gt;Customer" style="rounded=1;whiteSpace=wrap;html=1;verticalAlign=top;fillColor=#d5e8d4;strokeColor=#82b366;" vertex="1" parent="1">
          <mxGeometry x="-360" y="390.0000000000002" width="80" height="70" as="geometry" />
        </mxCell>
        <mxCell id="KEB4Dp1MF8ZIiS9gSXZJ-179" value="" style="sketch=0;outlineConnect=0;fontColor=#232F3E;gradientColor=none;fillColor=#232F3D;strokeColor=none;dashed=0;verticalLabelPosition=bottom;verticalAlign=top;align=center;html=1;fontSize=12;fontStyle=0;aspect=fixed;pointerEvents=1;shape=mxgraph.aws4.gear;" vertex="1" parent="1">
          <mxGeometry x="-334.5" y="426.7500000000002" width="29" height="29" as="geometry" />
        </mxCell>
        <mxCell id="KEB4Dp1MF8ZIiS9gSXZJ-180" value="API REST&lt;br&gt;Transaction" style="rounded=1;whiteSpace=wrap;html=1;verticalAlign=top;fillColor=#d5e8d4;strokeColor=#82b366;" vertex="1" parent="1">
          <mxGeometry x="-260" y="390.0000000000002" width="80" height="70" as="geometry" />
        </mxCell>
        <mxCell id="KEB4Dp1MF8ZIiS9gSXZJ-181" value="" style="sketch=0;outlineConnect=0;fontColor=#232F3E;gradientColor=none;fillColor=#232F3D;strokeColor=none;dashed=0;verticalLabelPosition=bottom;verticalAlign=top;align=center;html=1;fontSize=12;fontStyle=0;aspect=fixed;pointerEvents=1;shape=mxgraph.aws4.gear;" vertex="1" parent="1">
          <mxGeometry x="-234.5" y="427.0000000000002" width="29" height="29" as="geometry" />
        </mxCell>
        <mxCell id="KEB4Dp1MF8ZIiS9gSXZJ-182" value="API REST&lt;br&gt;Billing" style="rounded=1;whiteSpace=wrap;html=1;verticalAlign=top;fillColor=#d5e8d4;strokeColor=#82b366;" vertex="1" parent="1">
          <mxGeometry x="-159.5" y="390.0000000000002" width="80" height="70" as="geometry" />
        </mxCell>
        <mxCell id="KEB4Dp1MF8ZIiS9gSXZJ-183" value="" style="sketch=0;outlineConnect=0;fontColor=#232F3E;gradientColor=none;fillColor=#232F3D;strokeColor=none;dashed=0;verticalLabelPosition=bottom;verticalAlign=top;align=center;html=1;fontSize=12;fontStyle=0;aspect=fixed;pointerEvents=1;shape=mxgraph.aws4.gear;" vertex="1" parent="1">
          <mxGeometry x="-134" y="427.0000000000002" width="29" height="29" as="geometry" />
        </mxCell>
        <mxCell id="KEB4Dp1MF8ZIiS9gSXZJ-230" style="edgeStyle=orthogonalEdgeStyle;rounded=0;orthogonalLoop=1;jettySize=auto;html=1;exitX=1;exitY=0.5;exitDx=0;exitDy=0;entryX=0;entryY=0.5;entryDx=0;entryDy=0;" edge="1" parent="1" source="KEB4Dp1MF8ZIiS9gSXZJ-184" target="KEB4Dp1MF8ZIiS9gSXZJ-139">
          <mxGeometry relative="1" as="geometry" />
        </mxCell>
        <mxCell id="KEB4Dp1MF8ZIiS9gSXZJ-184" value="SpringBoot admin" style="rounded=1;whiteSpace=wrap;html=1;verticalAlign=top;fillColor=#e1d5e7;strokeColor=#9673a6;" vertex="1" parent="1">
          <mxGeometry x="-259.9966666666667" y="250" width="99.33333333333334" height="60" as="geometry" />
        </mxCell>
        <mxCell id="KEB4Dp1MF8ZIiS9gSXZJ-185" value="" style="sketch=0;outlineConnect=0;fontColor=#232F3E;gradientColor=none;fillColor=#232F3D;strokeColor=none;dashed=0;verticalLabelPosition=bottom;verticalAlign=top;align=center;html=1;fontSize=12;fontStyle=0;aspect=fixed;pointerEvents=1;shape=mxgraph.aws4.gear;" vertex="1" parent="1">
          <mxGeometry x="-224.8341666666666" y="275.5" width="29" height="29" as="geometry" />
        </mxCell>
        <mxCell id="KEB4Dp1MF8ZIiS9gSXZJ-192" value="" style="image;aspect=fixed;perimeter=ellipsePerimeter;html=1;align=center;shadow=0;dashed=0;spacingTop=3;image=img/lib/active_directory/database.svg;" vertex="1" parent="1">
          <mxGeometry x="-45" y="480.0000000000002" width="50" height="37" as="geometry" />
        </mxCell>
        <mxCell id="KEB4Dp1MF8ZIiS9gSXZJ-193" value="" style="image;aspect=fixed;perimeter=ellipsePerimeter;html=1;align=center;shadow=0;dashed=0;spacingTop=3;image=img/lib/active_directory/database.svg;" vertex="1" parent="1">
          <mxGeometry x="55" y="480.0000000000002" width="50" height="37" as="geometry" />
        </mxCell>
        <mxCell id="KEB4Dp1MF8ZIiS9gSXZJ-194" value="" style="image;aspect=fixed;perimeter=ellipsePerimeter;html=1;align=center;shadow=0;dashed=0;spacingTop=3;image=img/lib/active_directory/database.svg;" vertex="1" parent="1">
          <mxGeometry x="154" y="480.0000000000002" width="50" height="37" as="geometry" />
        </mxCell>
        <mxCell id="KEB4Dp1MF8ZIiS9gSXZJ-195" style="edgeStyle=orthogonalEdgeStyle;rounded=0;orthogonalLoop=1;jettySize=auto;html=1;entryX=0.5;entryY=0;entryDx=0;entryDy=0;" edge="1" source="KEB4Dp1MF8ZIiS9gSXZJ-202" target="KEB4Dp1MF8ZIiS9gSXZJ-192" parent="1">
          <mxGeometry relative="1" as="geometry" />
        </mxCell>
        <mxCell id="KEB4Dp1MF8ZIiS9gSXZJ-196" style="edgeStyle=orthogonalEdgeStyle;rounded=0;orthogonalLoop=1;jettySize=auto;html=1;exitX=0.5;exitY=1;exitDx=0;exitDy=0;entryX=0.5;entryY=0;entryDx=0;entryDy=0;" edge="1" source="KEB4Dp1MF8ZIiS9gSXZJ-203" target="KEB4Dp1MF8ZIiS9gSXZJ-193" parent="1">
          <mxGeometry relative="1" as="geometry" />
        </mxCell>
        <mxCell id="KEB4Dp1MF8ZIiS9gSXZJ-197" style="edgeStyle=orthogonalEdgeStyle;rounded=0;orthogonalLoop=1;jettySize=auto;html=1;exitX=0.5;exitY=1;exitDx=0;exitDy=0;entryX=0.5;entryY=0;entryDx=0;entryDy=0;" edge="1" source="KEB4Dp1MF8ZIiS9gSXZJ-205" target="KEB4Dp1MF8ZIiS9gSXZJ-194" parent="1">
          <mxGeometry relative="1" as="geometry" />
        </mxCell>
        <mxCell id="KEB4Dp1MF8ZIiS9gSXZJ-395" style="edgeStyle=orthogonalEdgeStyle;rounded=0;orthogonalLoop=1;jettySize=auto;html=1;" edge="1" parent="1" source="KEB4Dp1MF8ZIiS9gSXZJ-198" target="KEB4Dp1MF8ZIiS9gSXZJ-383">
          <mxGeometry relative="1" as="geometry">
            <Array as="points">
              <mxPoint x="-20" y="550" />
              <mxPoint x="-69" y="550" />
            </Array>
          </mxGeometry>
        </mxCell>
        <mxCell id="KEB4Dp1MF8ZIiS9gSXZJ-198" value="DB" style="text;html=1;strokeColor=none;fillColor=none;align=center;verticalAlign=middle;whiteSpace=wrap;rounded=0;" vertex="1" parent="1">
          <mxGeometry x="-50" y="510.0000000000002" width="60" height="30" as="geometry" />
        </mxCell>
        <mxCell id="KEB4Dp1MF8ZIiS9gSXZJ-396" style="edgeStyle=orthogonalEdgeStyle;rounded=0;orthogonalLoop=1;jettySize=auto;html=1;" edge="1" parent="1" source="KEB4Dp1MF8ZIiS9gSXZJ-199" target="KEB4Dp1MF8ZIiS9gSXZJ-383">
          <mxGeometry relative="1" as="geometry">
            <Array as="points">
              <mxPoint x="80" y="550" />
              <mxPoint x="-69" y="550" />
            </Array>
          </mxGeometry>
        </mxCell>
        <mxCell id="KEB4Dp1MF8ZIiS9gSXZJ-199" value="DB" style="text;html=1;strokeColor=none;fillColor=none;align=center;verticalAlign=middle;whiteSpace=wrap;rounded=0;" vertex="1" parent="1">
          <mxGeometry x="50" y="510.0000000000002" width="60" height="30" as="geometry" />
        </mxCell>
        <mxCell id="KEB4Dp1MF8ZIiS9gSXZJ-397" style="edgeStyle=orthogonalEdgeStyle;rounded=0;orthogonalLoop=1;jettySize=auto;html=1;" edge="1" parent="1" source="KEB4Dp1MF8ZIiS9gSXZJ-200" target="KEB4Dp1MF8ZIiS9gSXZJ-383">
          <mxGeometry relative="1" as="geometry">
            <Array as="points">
              <mxPoint x="180" y="550" />
              <mxPoint x="-69" y="550" />
            </Array>
          </mxGeometry>
        </mxCell>
        <mxCell id="KEB4Dp1MF8ZIiS9gSXZJ-200" value="DB" style="text;html=1;strokeColor=none;fillColor=none;align=center;verticalAlign=middle;whiteSpace=wrap;rounded=0;" vertex="1" parent="1">
          <mxGeometry x="150" y="510.0000000000002" width="60" height="30" as="geometry" />
        </mxCell>
        <mxCell id="KEB4Dp1MF8ZIiS9gSXZJ-201" value="API REST&lt;br&gt;Cinema" style="rounded=1;whiteSpace=wrap;html=1;verticalAlign=top;fillColor=#d5e8d4;strokeColor=#82b366;" vertex="1" parent="1">
          <mxGeometry x="-60" y="390.0000000000002" width="80" height="70" as="geometry" />
        </mxCell>
        <mxCell id="KEB4Dp1MF8ZIiS9gSXZJ-202" value="" style="sketch=0;outlineConnect=0;fontColor=#232F3E;gradientColor=none;fillColor=#232F3D;strokeColor=none;dashed=0;verticalLabelPosition=bottom;verticalAlign=top;align=center;html=1;fontSize=12;fontStyle=0;aspect=fixed;pointerEvents=1;shape=mxgraph.aws4.gear;" vertex="1" parent="1">
          <mxGeometry x="-34.5" y="426.7500000000002" width="29" height="29" as="geometry" />
        </mxCell>
        <mxCell id="KEB4Dp1MF8ZIiS9gSXZJ-203" value="API REST&lt;br&gt;Movie" style="rounded=1;whiteSpace=wrap;html=1;verticalAlign=top;fillColor=#d5e8d4;strokeColor=#82b366;" vertex="1" parent="1">
          <mxGeometry x="40" y="390.0000000000002" width="80" height="70" as="geometry" />
        </mxCell>
        <mxCell id="KEB4Dp1MF8ZIiS9gSXZJ-204" value="" style="sketch=0;outlineConnect=0;fontColor=#232F3E;gradientColor=none;fillColor=#232F3D;strokeColor=none;dashed=0;verticalLabelPosition=bottom;verticalAlign=top;align=center;html=1;fontSize=12;fontStyle=0;aspect=fixed;pointerEvents=1;shape=mxgraph.aws4.gear;" vertex="1" parent="1">
          <mxGeometry x="65.5" y="427.0000000000002" width="29" height="29" as="geometry" />
        </mxCell>
        <mxCell id="KEB4Dp1MF8ZIiS9gSXZJ-205" value="API REST&lt;br&gt;Product" style="rounded=1;whiteSpace=wrap;html=1;verticalAlign=top;fillColor=#d5e8d4;strokeColor=#82b366;" vertex="1" parent="1">
          <mxGeometry x="139" y="390.0000000000002" width="80" height="70" as="geometry" />
        </mxCell>
        <mxCell id="KEB4Dp1MF8ZIiS9gSXZJ-206" value="" style="sketch=0;outlineConnect=0;fontColor=#232F3E;gradientColor=none;fillColor=#232F3D;strokeColor=none;dashed=0;verticalLabelPosition=bottom;verticalAlign=top;align=center;html=1;fontSize=12;fontStyle=0;aspect=fixed;pointerEvents=1;shape=mxgraph.aws4.gear;" vertex="1" parent="1">
          <mxGeometry x="164.5" y="427.0000000000002" width="29" height="29" as="geometry" />
        </mxCell>
        <mxCell id="KEB4Dp1MF8ZIiS9gSXZJ-218" value="" style="group" vertex="1" connectable="0" parent="1">
          <mxGeometry x="-130" y="250" width="120" height="60" as="geometry" />
        </mxCell>
        <mxCell id="KEB4Dp1MF8ZIiS9gSXZJ-139" value="Registry / Discovery" style="rounded=1;whiteSpace=wrap;html=1;verticalAlign=top;fillColor=#f5f5f5;fontColor=#333333;strokeColor=#666666;" vertex="1" parent="KEB4Dp1MF8ZIiS9gSXZJ-218">
          <mxGeometry width="120" height="60" as="geometry" />
        </mxCell>
        <mxCell id="KEB4Dp1MF8ZIiS9gSXZJ-140" value="" style="sketch=0;outlineConnect=0;fontColor=#232F3E;gradientColor=none;fillColor=#232F3D;strokeColor=none;dashed=0;verticalLabelPosition=bottom;verticalAlign=top;align=center;html=1;fontSize=12;fontStyle=0;aspect=fixed;pointerEvents=1;shape=mxgraph.aws4.gear;" vertex="1" parent="KEB4Dp1MF8ZIiS9gSXZJ-218">
          <mxGeometry x="45.5" y="25.5" width="29" height="29" as="geometry" />
        </mxCell>
        <mxCell id="KEB4Dp1MF8ZIiS9gSXZJ-221" style="edgeStyle=orthogonalEdgeStyle;rounded=0;orthogonalLoop=1;jettySize=auto;html=1;entryX=0.5;entryY=0;entryDx=0;entryDy=0;" edge="1" parent="1" source="KEB4Dp1MF8ZIiS9gSXZJ-139" target="KEB4Dp1MF8ZIiS9gSXZJ-178">
          <mxGeometry relative="1" as="geometry">
            <Array as="points">
              <mxPoint x="-70" y="350" />
              <mxPoint x="-320" y="350" />
            </Array>
          </mxGeometry>
        </mxCell>
        <mxCell id="KEB4Dp1MF8ZIiS9gSXZJ-222" style="edgeStyle=orthogonalEdgeStyle;rounded=0;orthogonalLoop=1;jettySize=auto;html=1;entryX=0.5;entryY=0;entryDx=0;entryDy=0;" edge="1" parent="1" source="KEB4Dp1MF8ZIiS9gSXZJ-139" target="KEB4Dp1MF8ZIiS9gSXZJ-180">
          <mxGeometry relative="1" as="geometry">
            <Array as="points">
              <mxPoint x="-70" y="350" />
              <mxPoint x="-220" y="350" />
            </Array>
          </mxGeometry>
        </mxCell>
        <mxCell id="KEB4Dp1MF8ZIiS9gSXZJ-223" style="edgeStyle=orthogonalEdgeStyle;rounded=0;orthogonalLoop=1;jettySize=auto;html=1;entryX=0.5;entryY=0;entryDx=0;entryDy=0;" edge="1" parent="1" source="KEB4Dp1MF8ZIiS9gSXZJ-139" target="KEB4Dp1MF8ZIiS9gSXZJ-182">
          <mxGeometry relative="1" as="geometry" />
        </mxCell>
        <mxCell id="KEB4Dp1MF8ZIiS9gSXZJ-224" style="edgeStyle=orthogonalEdgeStyle;rounded=0;orthogonalLoop=1;jettySize=auto;html=1;entryX=0.5;entryY=0;entryDx=0;entryDy=0;" edge="1" parent="1" source="KEB4Dp1MF8ZIiS9gSXZJ-139" target="KEB4Dp1MF8ZIiS9gSXZJ-201">
          <mxGeometry relative="1" as="geometry" />
        </mxCell>
        <mxCell id="KEB4Dp1MF8ZIiS9gSXZJ-225" style="edgeStyle=orthogonalEdgeStyle;rounded=0;orthogonalLoop=1;jettySize=auto;html=1;entryX=0.5;entryY=0;entryDx=0;entryDy=0;" edge="1" parent="1" source="KEB4Dp1MF8ZIiS9gSXZJ-139" target="KEB4Dp1MF8ZIiS9gSXZJ-203">
          <mxGeometry relative="1" as="geometry">
            <Array as="points">
              <mxPoint x="-70" y="350" />
              <mxPoint x="80" y="350" />
            </Array>
          </mxGeometry>
        </mxCell>
        <mxCell id="KEB4Dp1MF8ZIiS9gSXZJ-226" style="edgeStyle=orthogonalEdgeStyle;rounded=0;orthogonalLoop=1;jettySize=auto;html=1;entryX=0.5;entryY=0;entryDx=0;entryDy=0;" edge="1" parent="1" source="KEB4Dp1MF8ZIiS9gSXZJ-139" target="KEB4Dp1MF8ZIiS9gSXZJ-205">
          <mxGeometry relative="1" as="geometry">
            <Array as="points">
              <mxPoint x="-70" y="350" />
              <mxPoint x="179" y="350" />
            </Array>
          </mxGeometry>
        </mxCell>
        <mxCell id="KEB4Dp1MF8ZIiS9gSXZJ-232" style="edgeStyle=orthogonalEdgeStyle;rounded=0;orthogonalLoop=1;jettySize=auto;html=1;" edge="1" source="KEB4Dp1MF8ZIiS9gSXZJ-238" target="KEB4Dp1MF8ZIiS9gSXZJ-239" parent="1">
          <mxGeometry relative="1" as="geometry">
            <Array as="points">
              <mxPoint x="795" y="370.5" />
              <mxPoint x="835" y="370.5" />
            </Array>
          </mxGeometry>
        </mxCell>
        <mxCell id="KEB4Dp1MF8ZIiS9gSXZJ-233" style="edgeStyle=orthogonalEdgeStyle;rounded=0;orthogonalLoop=1;jettySize=auto;html=1;" edge="1" source="KEB4Dp1MF8ZIiS9gSXZJ-238" target="KEB4Dp1MF8ZIiS9gSXZJ-251" parent="1">
          <mxGeometry relative="1" as="geometry">
            <Array as="points">
              <mxPoint x="795" y="370.5" />
              <mxPoint x="996" y="370.5" />
            </Array>
          </mxGeometry>
        </mxCell>
        <mxCell id="KEB4Dp1MF8ZIiS9gSXZJ-234" style="edgeStyle=orthogonalEdgeStyle;rounded=0;orthogonalLoop=1;jettySize=auto;html=1;" edge="1" source="KEB4Dp1MF8ZIiS9gSXZJ-238" target="KEB4Dp1MF8ZIiS9gSXZJ-250" parent="1">
          <mxGeometry relative="1" as="geometry">
            <Array as="points">
              <mxPoint x="795" y="370.5" />
              <mxPoint x="915" y="370.5" />
            </Array>
          </mxGeometry>
        </mxCell>
        <mxCell id="KEB4Dp1MF8ZIiS9gSXZJ-235" style="edgeStyle=orthogonalEdgeStyle;rounded=0;orthogonalLoop=1;jettySize=auto;html=1;" edge="1" source="KEB4Dp1MF8ZIiS9gSXZJ-238" target="KEB4Dp1MF8ZIiS9gSXZJ-257" parent="1">
          <mxGeometry relative="1" as="geometry">
            <Array as="points">
              <mxPoint x="795" y="370.5" />
              <mxPoint x="755" y="370.5" />
            </Array>
          </mxGeometry>
        </mxCell>
        <mxCell id="KEB4Dp1MF8ZIiS9gSXZJ-236" style="edgeStyle=orthogonalEdgeStyle;rounded=0;orthogonalLoop=1;jettySize=auto;html=1;" edge="1" source="KEB4Dp1MF8ZIiS9gSXZJ-238" target="KEB4Dp1MF8ZIiS9gSXZJ-258" parent="1">
          <mxGeometry relative="1" as="geometry">
            <Array as="points">
              <mxPoint x="795" y="370.5" />
              <mxPoint x="675" y="370.5" />
            </Array>
          </mxGeometry>
        </mxCell>
        <mxCell id="KEB4Dp1MF8ZIiS9gSXZJ-237" style="edgeStyle=orthogonalEdgeStyle;rounded=0;orthogonalLoop=1;jettySize=auto;html=1;" edge="1" source="KEB4Dp1MF8ZIiS9gSXZJ-238" target="KEB4Dp1MF8ZIiS9gSXZJ-259" parent="1">
          <mxGeometry relative="1" as="geometry">
            <Array as="points">
              <mxPoint x="795" y="370.5" />
              <mxPoint x="595" y="370.5" />
            </Array>
          </mxGeometry>
        </mxCell>
        <mxCell id="KEB4Dp1MF8ZIiS9gSXZJ-238" value="businessdomain" style="sketch=0;pointerEvents=1;shadow=0;dashed=0;html=1;strokeColor=none;labelPosition=center;verticalLabelPosition=bottom;verticalAlign=top;outlineConnect=0;align=center;shape=mxgraph.office.concepts.folder;fillColor=#DA4026;" vertex="1" parent="1">
          <mxGeometry x="770" y="290" width="50" height="45" as="geometry" />
        </mxCell>
        <mxCell id="KEB4Dp1MF8ZIiS9gSXZJ-239" value="cinema" style="sketch=0;pointerEvents=1;shadow=0;dashed=0;html=1;strokeColor=none;labelPosition=center;verticalLabelPosition=bottom;verticalAlign=top;outlineConnect=0;align=center;shape=mxgraph.office.concepts.folder;fillColor=#7FBA42;" vertex="1" parent="1">
          <mxGeometry x="810" y="400" width="50" height="45" as="geometry" />
        </mxCell>
        <mxCell id="KEB4Dp1MF8ZIiS9gSXZJ-240" value="eureka&lt;br&gt;server" style="sketch=0;pointerEvents=1;shadow=0;dashed=0;html=1;strokeColor=none;labelPosition=center;verticalLabelPosition=bottom;verticalAlign=top;outlineConnect=0;align=center;shape=mxgraph.office.concepts.folder;fillColor=#2072B8;" vertex="1" parent="1">
          <mxGeometry x="1051" y="400" width="50" height="45" as="geometry" />
        </mxCell>
        <mxCell id="KEB4Dp1MF8ZIiS9gSXZJ-241" style="edgeStyle=orthogonalEdgeStyle;rounded=0;orthogonalLoop=1;jettySize=auto;html=1;" edge="1" source="KEB4Dp1MF8ZIiS9gSXZJ-243" target="KEB4Dp1MF8ZIiS9gSXZJ-238" parent="1">
          <mxGeometry relative="1" as="geometry">
            <mxPoint x="1064.83" y="197.00000000000045" as="sourcePoint" />
            <Array as="points">
              <mxPoint x="1035" y="260" />
              <mxPoint x="795" y="260" />
            </Array>
          </mxGeometry>
        </mxCell>
        <mxCell id="KEB4Dp1MF8ZIiS9gSXZJ-242" style="edgeStyle=orthogonalEdgeStyle;rounded=0;orthogonalLoop=1;jettySize=auto;html=1;" edge="1" source="KEB4Dp1MF8ZIiS9gSXZJ-243" target="KEB4Dp1MF8ZIiS9gSXZJ-249" parent="1">
          <mxGeometry relative="1" as="geometry">
            <Array as="points">
              <mxPoint x="1035" y="260" />
              <mxPoint x="1235" y="260" />
            </Array>
          </mxGeometry>
        </mxCell>
        <mxCell id="KEB4Dp1MF8ZIiS9gSXZJ-243" value="cinerikuyparent" style="sketch=0;pointerEvents=1;shadow=0;dashed=0;html=1;strokeColor=none;fillColor=#505050;labelPosition=center;verticalLabelPosition=bottom;verticalAlign=top;outlineConnect=0;align=center;shape=mxgraph.office.concepts.folder;" vertex="1" parent="1">
          <mxGeometry x="1010" y="182" width="50" height="45" as="geometry" />
        </mxCell>
        <mxCell id="KEB4Dp1MF8ZIiS9gSXZJ-244" style="edgeStyle=orthogonalEdgeStyle;rounded=0;orthogonalLoop=1;jettySize=auto;html=1;" edge="1" source="KEB4Dp1MF8ZIiS9gSXZJ-249" target="KEB4Dp1MF8ZIiS9gSXZJ-253" parent="1">
          <mxGeometry relative="1" as="geometry" />
        </mxCell>
        <mxCell id="KEB4Dp1MF8ZIiS9gSXZJ-245" style="edgeStyle=orthogonalEdgeStyle;rounded=0;orthogonalLoop=1;jettySize=auto;html=1;" edge="1" source="KEB4Dp1MF8ZIiS9gSXZJ-249" target="KEB4Dp1MF8ZIiS9gSXZJ-252" parent="1">
          <mxGeometry relative="1" as="geometry">
            <Array as="points">
              <mxPoint x="1235" y="370.5" />
              <mxPoint x="1155" y="370.5" />
            </Array>
          </mxGeometry>
        </mxCell>
        <mxCell id="KEB4Dp1MF8ZIiS9gSXZJ-246" style="edgeStyle=orthogonalEdgeStyle;rounded=0;orthogonalLoop=1;jettySize=auto;html=1;" edge="1" source="KEB4Dp1MF8ZIiS9gSXZJ-249" target="KEB4Dp1MF8ZIiS9gSXZJ-240" parent="1">
          <mxGeometry relative="1" as="geometry">
            <Array as="points">
              <mxPoint x="1235" y="370.5" />
              <mxPoint x="1076" y="370.5" />
            </Array>
          </mxGeometry>
        </mxCell>
        <mxCell id="KEB4Dp1MF8ZIiS9gSXZJ-247" style="edgeStyle=orthogonalEdgeStyle;rounded=0;orthogonalLoop=1;jettySize=auto;html=1;" edge="1" source="KEB4Dp1MF8ZIiS9gSXZJ-249" target="KEB4Dp1MF8ZIiS9gSXZJ-254" parent="1">
          <mxGeometry relative="1" as="geometry">
            <Array as="points">
              <mxPoint x="1235" y="370.5" />
              <mxPoint x="1315" y="370.5" />
            </Array>
          </mxGeometry>
        </mxCell>
        <mxCell id="KEB4Dp1MF8ZIiS9gSXZJ-248" style="edgeStyle=orthogonalEdgeStyle;rounded=0;orthogonalLoop=1;jettySize=auto;html=1;" edge="1" source="KEB4Dp1MF8ZIiS9gSXZJ-249" target="KEB4Dp1MF8ZIiS9gSXZJ-255" parent="1">
          <mxGeometry relative="1" as="geometry">
            <Array as="points">
              <mxPoint x="1235" y="370.5" />
              <mxPoint x="1395" y="370.5" />
            </Array>
          </mxGeometry>
        </mxCell>
        <mxCell id="KEB4Dp1MF8ZIiS9gSXZJ-249" value="infrastructuredomain" style="sketch=0;pointerEvents=1;shadow=0;dashed=0;html=1;strokeColor=none;labelPosition=center;verticalLabelPosition=bottom;verticalAlign=top;outlineConnect=0;align=center;shape=mxgraph.office.concepts.folder;fillColor=#DA4026;" vertex="1" parent="1">
          <mxGeometry x="1210" y="290" width="50" height="45" as="geometry" />
        </mxCell>
        <mxCell id="KEB4Dp1MF8ZIiS9gSXZJ-250" value="movie" style="sketch=0;pointerEvents=1;shadow=0;dashed=0;html=1;strokeColor=none;labelPosition=center;verticalLabelPosition=bottom;verticalAlign=top;outlineConnect=0;align=center;shape=mxgraph.office.concepts.folder;fillColor=#7FBA42;" vertex="1" parent="1">
          <mxGeometry x="890" y="400" width="50" height="45" as="geometry" />
        </mxCell>
        <mxCell id="KEB4Dp1MF8ZIiS9gSXZJ-251" value="product" style="sketch=0;pointerEvents=1;shadow=0;dashed=0;html=1;strokeColor=none;labelPosition=center;verticalLabelPosition=bottom;verticalAlign=top;outlineConnect=0;align=center;shape=mxgraph.office.concepts.folder;fillColor=#7FBA42;" vertex="1" parent="1">
          <mxGeometry x="971" y="400" width="50" height="45" as="geometry" />
        </mxCell>
        <mxCell id="KEB4Dp1MF8ZIiS9gSXZJ-252" value="config&lt;br&gt;server" style="sketch=0;pointerEvents=1;shadow=0;dashed=0;html=1;strokeColor=none;labelPosition=center;verticalLabelPosition=bottom;verticalAlign=top;outlineConnect=0;align=center;shape=mxgraph.office.concepts.folder;fillColor=#2072B8;" vertex="1" parent="1">
          <mxGeometry x="1130" y="400" width="50" height="45" as="geometry" />
        </mxCell>
        <mxCell id="KEB4Dp1MF8ZIiS9gSXZJ-253" value="admin&lt;br&gt;server" style="sketch=0;pointerEvents=1;shadow=0;dashed=0;html=1;strokeColor=none;labelPosition=center;verticalLabelPosition=bottom;verticalAlign=top;outlineConnect=0;align=center;shape=mxgraph.office.concepts.folder;fillColor=#2072B8;" vertex="1" parent="1">
          <mxGeometry x="1210" y="400" width="50" height="45" as="geometry" />
        </mxCell>
        <mxCell id="KEB4Dp1MF8ZIiS9gSXZJ-254" value="keycloak&lt;br&gt;adapter" style="sketch=0;pointerEvents=1;shadow=0;dashed=0;html=1;strokeColor=none;labelPosition=center;verticalLabelPosition=bottom;verticalAlign=top;outlineConnect=0;align=center;shape=mxgraph.office.concepts.folder;fillColor=#2072B8;" vertex="1" parent="1">
          <mxGeometry x="1290" y="400" width="50" height="45" as="geometry" />
        </mxCell>
        <mxCell id="KEB4Dp1MF8ZIiS9gSXZJ-255" value="api&lt;br&gt;gateway" style="sketch=0;pointerEvents=1;shadow=0;dashed=0;html=1;strokeColor=none;labelPosition=center;verticalLabelPosition=bottom;verticalAlign=top;outlineConnect=0;align=center;shape=mxgraph.office.concepts.folder;fillColor=#2072B8;" vertex="1" parent="1">
          <mxGeometry x="1370" y="400" width="50" height="45" as="geometry" />
        </mxCell>
        <mxCell id="KEB4Dp1MF8ZIiS9gSXZJ-256" value="GitHub" style="dashed=0;outlineConnect=0;html=1;align=center;labelPosition=center;verticalLabelPosition=bottom;verticalAlign=top;shape=mxgraph.weblogos.github" vertex="1" parent="1">
          <mxGeometry x="1090" y="150" width="24.5" height="24.5" as="geometry" />
        </mxCell>
        <mxCell id="KEB4Dp1MF8ZIiS9gSXZJ-257" value="billing" style="sketch=0;pointerEvents=1;shadow=0;dashed=0;html=1;strokeColor=none;labelPosition=center;verticalLabelPosition=bottom;verticalAlign=top;outlineConnect=0;align=center;shape=mxgraph.office.concepts.folder;fillColor=#7FBA42;" vertex="1" parent="1">
          <mxGeometry x="730" y="400" width="50" height="45" as="geometry" />
        </mxCell>
        <mxCell id="KEB4Dp1MF8ZIiS9gSXZJ-258" value="transaction" style="sketch=0;pointerEvents=1;shadow=0;dashed=0;html=1;strokeColor=none;labelPosition=center;verticalLabelPosition=bottom;verticalAlign=top;outlineConnect=0;align=center;shape=mxgraph.office.concepts.folder;fillColor=#7FBA42;" vertex="1" parent="1">
          <mxGeometry x="650" y="400" width="50" height="45" as="geometry" />
        </mxCell>
        <mxCell id="KEB4Dp1MF8ZIiS9gSXZJ-259" value="customer" style="sketch=0;pointerEvents=1;shadow=0;dashed=0;html=1;strokeColor=none;labelPosition=center;verticalLabelPosition=bottom;verticalAlign=top;outlineConnect=0;align=center;shape=mxgraph.office.concepts.folder;fillColor=#7FBA42;" vertex="1" parent="1">
          <mxGeometry x="570" y="400" width="50" height="45" as="geometry" />
        </mxCell>
        <mxCell id="KEB4Dp1MF8ZIiS9gSXZJ-260" value="MAVEN DEPENDENCIES STRUCTURE" style="text;html=1;strokeColor=none;fillColor=none;align=center;verticalAlign=middle;whiteSpace=wrap;rounded=0;fontStyle=1" vertex="1" parent="1">
          <mxGeometry x="899.17" y="585" width="231.66" height="30" as="geometry" />
        </mxCell>
        <mxCell id="KEB4Dp1MF8ZIiS9gSXZJ-285" value="GitHub" style="dashed=0;outlineConnect=0;html=1;align=center;labelPosition=center;verticalLabelPosition=bottom;verticalAlign=top;shape=mxgraph.weblogos.github" vertex="1" parent="1">
          <mxGeometry x="1190" y="640" width="24.5" height="24.5" as="geometry" />
        </mxCell>
        <mxCell id="KEB4Dp1MF8ZIiS9gSXZJ-333" style="edgeStyle=orthogonalEdgeStyle;rounded=0;orthogonalLoop=1;jettySize=auto;html=1;exitX=0.5;exitY=1;exitDx=0;exitDy=0;entryX=0.5;entryY=0;entryDx=0;entryDy=0;" edge="1" parent="1" source="KEB4Dp1MF8ZIiS9gSXZJ-289" target="KEB4Dp1MF8ZIiS9gSXZJ-296">
          <mxGeometry relative="1" as="geometry" />
        </mxCell>
        <mxCell id="KEB4Dp1MF8ZIiS9gSXZJ-334" style="edgeStyle=orthogonalEdgeStyle;rounded=0;orthogonalLoop=1;jettySize=auto;html=1;exitX=0.5;exitY=1;exitDx=0;exitDy=0;entryX=0.5;entryY=0;entryDx=0;entryDy=0;" edge="1" parent="1" source="KEB4Dp1MF8ZIiS9gSXZJ-289" target="KEB4Dp1MF8ZIiS9gSXZJ-294">
          <mxGeometry relative="1" as="geometry" />
        </mxCell>
        <mxCell id="KEB4Dp1MF8ZIiS9gSXZJ-358" style="edgeStyle=orthogonalEdgeStyle;rounded=0;orthogonalLoop=1;jettySize=auto;html=1;exitX=0.5;exitY=1;exitDx=0;exitDy=0;entryX=0.5;entryY=0;entryDx=0;entryDy=0;" edge="1" parent="1" source="KEB4Dp1MF8ZIiS9gSXZJ-294" target="KEB4Dp1MF8ZIiS9gSXZJ-337">
          <mxGeometry relative="1" as="geometry" />
        </mxCell>
        <mxCell id="KEB4Dp1MF8ZIiS9gSXZJ-359" style="edgeStyle=orthogonalEdgeStyle;rounded=0;orthogonalLoop=1;jettySize=auto;html=1;exitX=0.5;exitY=1;exitDx=0;exitDy=0;entryX=0.5;entryY=0;entryDx=0;entryDy=0;" edge="1" parent="1" source="KEB4Dp1MF8ZIiS9gSXZJ-294" target="KEB4Dp1MF8ZIiS9gSXZJ-342">
          <mxGeometry relative="1" as="geometry" />
        </mxCell>
        <mxCell id="KEB4Dp1MF8ZIiS9gSXZJ-360" style="edgeStyle=orthogonalEdgeStyle;rounded=0;orthogonalLoop=1;jettySize=auto;html=1;exitX=0.5;exitY=1;exitDx=0;exitDy=0;entryX=0.5;entryY=0;entryDx=0;entryDy=0;" edge="1" parent="1" source="KEB4Dp1MF8ZIiS9gSXZJ-294" target="KEB4Dp1MF8ZIiS9gSXZJ-343">
          <mxGeometry relative="1" as="geometry" />
        </mxCell>
        <mxCell id="KEB4Dp1MF8ZIiS9gSXZJ-361" style="edgeStyle=orthogonalEdgeStyle;rounded=0;orthogonalLoop=1;jettySize=auto;html=1;exitX=0.5;exitY=1;exitDx=0;exitDy=0;entryX=0.5;entryY=0;entryDx=0;entryDy=0;" edge="1" parent="1" source="KEB4Dp1MF8ZIiS9gSXZJ-294" target="KEB4Dp1MF8ZIiS9gSXZJ-346">
          <mxGeometry relative="1" as="geometry">
            <Array as="points">
              <mxPoint x="470" y="1343" />
              <mxPoint x="340" y="1343" />
            </Array>
          </mxGeometry>
        </mxCell>
        <mxCell id="KEB4Dp1MF8ZIiS9gSXZJ-362" style="edgeStyle=orthogonalEdgeStyle;rounded=0;orthogonalLoop=1;jettySize=auto;html=1;exitX=0.5;exitY=1;exitDx=0;exitDy=0;entryX=0.5;entryY=0;entryDx=0;entryDy=0;" edge="1" parent="1" source="KEB4Dp1MF8ZIiS9gSXZJ-294" target="KEB4Dp1MF8ZIiS9gSXZJ-348">
          <mxGeometry relative="1" as="geometry">
            <Array as="points">
              <mxPoint x="470" y="1343" />
              <mxPoint x="600" y="1343" />
            </Array>
          </mxGeometry>
        </mxCell>
        <mxCell id="KEB4Dp1MF8ZIiS9gSXZJ-363" style="edgeStyle=orthogonalEdgeStyle;rounded=0;orthogonalLoop=1;jettySize=auto;html=1;exitX=0.5;exitY=1;exitDx=0;exitDy=0;entryX=0.5;entryY=0;entryDx=0;entryDy=0;" edge="1" parent="1" source="KEB4Dp1MF8ZIiS9gSXZJ-294" target="KEB4Dp1MF8ZIiS9gSXZJ-349">
          <mxGeometry relative="1" as="geometry">
            <Array as="points">
              <mxPoint x="470" y="1343" />
              <mxPoint x="860" y="1343" />
            </Array>
          </mxGeometry>
        </mxCell>
        <mxCell id="KEB4Dp1MF8ZIiS9gSXZJ-294" value="&lt;b&gt;&lt;u&gt;businessdomain&lt;br&gt;&lt;/u&gt;&lt;/b&gt;parent&lt;br&gt;- groupId: com.cinerikuy&lt;br&gt;- artifactId: cinerikuyparent&lt;br&gt;groupId: com.cinerikuy&lt;br style=&quot;border-color: var(--border-color);&quot;&gt;artifactId: businessdomain&lt;br style=&quot;border-color: var(--border-color);&quot;&gt;packaging: pom&lt;br&gt;properties:&lt;br&gt;- spring-cloud-dependencies.version: 2021.0.4&lt;br&gt;dependencies:&lt;br&gt;- artifactId:&amp;nbsp;spring-cloud-starter-netflix-eureka-client (#)&lt;br&gt;- artifactId: spring-cloud-starter-config&lt;br&gt;- artifactId: spring-cloud-starter-bootstrap&lt;br&gt;- artifactId: spring-boot-starter-web&lt;br&gt;- artifactId: spring-boot-starter-data-jpa&lt;br&gt;- artifactId: spring-boot-starter-webflux&lt;br&gt;- artifactId: springdoc-openapi-ui (1.6.12)&lt;br&gt;- artifactId: swagger-annotations (1.6.8)&lt;br&gt;- artifactId: lombok (1.18.24)&lt;br&gt;- artifactId: mapstruct-jdk8 (1.5.3.Final)&lt;br&gt;- artifactId: snakeyaml (1.27)&lt;br&gt;- artifactId: h2 (runtime)&lt;br&gt;- artifactId: postgresql (parent)" style="rounded=0;whiteSpace=wrap;html=1;align=left;verticalAlign=top;" vertex="1" parent="1">
          <mxGeometry x="320" y="963" width="300" height="340" as="geometry" />
        </mxCell>
        <mxCell id="KEB4Dp1MF8ZIiS9gSXZJ-295" value="businessdomain" style="sketch=0;pointerEvents=1;shadow=0;dashed=0;html=1;strokeColor=none;labelPosition=center;verticalLabelPosition=bottom;verticalAlign=top;outlineConnect=0;align=center;shape=mxgraph.office.concepts.folder;fillColor=#DA4026;" vertex="1" parent="1">
          <mxGeometry x="545.5" y="973" width="50" height="45" as="geometry" />
        </mxCell>
        <mxCell id="KEB4Dp1MF8ZIiS9gSXZJ-327" style="edgeStyle=orthogonalEdgeStyle;rounded=0;orthogonalLoop=1;jettySize=auto;html=1;exitX=0.5;exitY=1;exitDx=0;exitDy=0;" edge="1" parent="1" source="KEB4Dp1MF8ZIiS9gSXZJ-296" target="KEB4Dp1MF8ZIiS9gSXZJ-298">
          <mxGeometry relative="1" as="geometry" />
        </mxCell>
        <mxCell id="KEB4Dp1MF8ZIiS9gSXZJ-328" style="edgeStyle=orthogonalEdgeStyle;rounded=0;orthogonalLoop=1;jettySize=auto;html=1;exitX=0.5;exitY=1;exitDx=0;exitDy=0;entryX=0.5;entryY=0;entryDx=0;entryDy=0;" edge="1" parent="1" source="KEB4Dp1MF8ZIiS9gSXZJ-296" target="KEB4Dp1MF8ZIiS9gSXZJ-302">
          <mxGeometry relative="1" as="geometry" />
        </mxCell>
        <mxCell id="KEB4Dp1MF8ZIiS9gSXZJ-329" style="edgeStyle=orthogonalEdgeStyle;rounded=0;orthogonalLoop=1;jettySize=auto;html=1;exitX=0.5;exitY=1;exitDx=0;exitDy=0;entryX=0.5;entryY=0;entryDx=0;entryDy=0;" edge="1" parent="1" source="KEB4Dp1MF8ZIiS9gSXZJ-296" target="KEB4Dp1MF8ZIiS9gSXZJ-299">
          <mxGeometry relative="1" as="geometry" />
        </mxCell>
        <mxCell id="KEB4Dp1MF8ZIiS9gSXZJ-330" style="edgeStyle=orthogonalEdgeStyle;rounded=0;orthogonalLoop=1;jettySize=auto;html=1;exitX=0.5;exitY=1;exitDx=0;exitDy=0;entryX=0.5;entryY=0;entryDx=0;entryDy=0;" edge="1" parent="1" source="KEB4Dp1MF8ZIiS9gSXZJ-296" target="KEB4Dp1MF8ZIiS9gSXZJ-311">
          <mxGeometry relative="1" as="geometry">
            <Array as="points">
              <mxPoint x="1570" y="1143" />
              <mxPoint x="1400" y="1143" />
            </Array>
          </mxGeometry>
        </mxCell>
        <mxCell id="KEB4Dp1MF8ZIiS9gSXZJ-332" style="edgeStyle=orthogonalEdgeStyle;rounded=0;orthogonalLoop=1;jettySize=auto;html=1;exitX=0.5;exitY=1;exitDx=0;exitDy=0;entryX=0.5;entryY=0;entryDx=0;entryDy=0;" edge="1" parent="1" source="KEB4Dp1MF8ZIiS9gSXZJ-296" target="KEB4Dp1MF8ZIiS9gSXZJ-316">
          <mxGeometry relative="1" as="geometry">
            <Array as="points">
              <mxPoint x="1570" y="1143" />
              <mxPoint x="1740" y="1143" />
            </Array>
          </mxGeometry>
        </mxCell>
        <mxCell id="KEB4Dp1MF8ZIiS9gSXZJ-296" value="&lt;b&gt;&lt;u&gt;infrastructuredomain&lt;br&gt;&lt;/u&gt;&lt;/b&gt;parent&lt;br&gt;- groupId: com.cinerikuy&lt;br&gt;- artifactId: cinerikuyparent&lt;br&gt;groupId: com.cinerikuy&lt;br style=&quot;border-color: var(--border-color);&quot;&gt;artifactId: infrastructuredomain&lt;br style=&quot;border-color: var(--border-color);&quot;&gt;packaging: pom&lt;br&gt;properties:&lt;br&gt;- spring-cloud-dependencies.version: 2021.0.4&lt;br&gt;" style="rounded=0;whiteSpace=wrap;html=1;align=left;verticalAlign=top;" vertex="1" parent="1">
          <mxGeometry x="1420" y="963" width="299" height="140" as="geometry" />
        </mxCell>
        <mxCell id="KEB4Dp1MF8ZIiS9gSXZJ-297" value="infrastructuredomain" style="sketch=0;pointerEvents=1;shadow=0;dashed=0;html=1;strokeColor=none;labelPosition=center;verticalLabelPosition=bottom;verticalAlign=top;outlineConnect=0;align=center;shape=mxgraph.office.concepts.folder;fillColor=#DA4026;" vertex="1" parent="1">
          <mxGeometry x="1630" y="973" width="50" height="45" as="geometry" />
        </mxCell>
        <mxCell id="KEB4Dp1MF8ZIiS9gSXZJ-319" value="" style="group" vertex="1" connectable="0" parent="1">
          <mxGeometry x="1250" y="1423" width="300" height="218" as="geometry" />
        </mxCell>
        <mxCell id="KEB4Dp1MF8ZIiS9gSXZJ-311" value="&lt;b&gt;&lt;u&gt;keycloakadapter&lt;br&gt;&lt;/u&gt;&lt;/b&gt;parent&lt;br&gt;- groupId: com.cinerikuy&lt;br&gt;- artifactId: infrastructuredomain&lt;br&gt;groupId: com.cinerikuy&lt;br style=&quot;border-color: var(--border-color);&quot;&gt;artifactId: keycloakadapter&lt;br style=&quot;border-color: var(--border-color);&quot;&gt;dependencies:&lt;br&gt;- artifactId:&amp;nbsp;spring-cloud-starter-netflix-eureka-client&lt;br&gt;- artifactId: spring-boot-starter-web&lt;br&gt;- artifactId: jwks-rsa (0.12.0)&lt;br&gt;- artifactId: java-jwt (3.8.3)&lt;br&gt;- artifactId: lombok (1.18.24)&lt;br&gt;plugins:&lt;br&gt;- artifactId:&amp;nbsp;spring-boot-maven-plugin" style="rounded=0;whiteSpace=wrap;html=1;align=left;verticalAlign=top;container=0;" vertex="1" parent="KEB4Dp1MF8ZIiS9gSXZJ-319">
          <mxGeometry width="300" height="218" as="geometry" />
        </mxCell>
        <mxCell id="KEB4Dp1MF8ZIiS9gSXZJ-314" value="keycloak&lt;br&gt;adapter" style="sketch=0;pointerEvents=1;shadow=0;dashed=0;html=1;strokeColor=none;labelPosition=center;verticalLabelPosition=bottom;verticalAlign=top;outlineConnect=0;align=center;shape=mxgraph.office.concepts.folder;fillColor=#2072B8;" vertex="1" parent="KEB4Dp1MF8ZIiS9gSXZJ-319">
          <mxGeometry x="237.71626297577853" y="12" width="51.903114186851205" height="45" as="geometry" />
        </mxCell>
        <mxCell id="KEB4Dp1MF8ZIiS9gSXZJ-320" value="" style="group" vertex="1" connectable="0" parent="1">
          <mxGeometry x="1590" y="1423" width="300" height="186" as="geometry" />
        </mxCell>
        <mxCell id="KEB4Dp1MF8ZIiS9gSXZJ-316" value="&lt;b&gt;&lt;u&gt;apigateway&lt;br&gt;&lt;/u&gt;&lt;/b&gt;parent&lt;br&gt;- groupId: com.cinerikuy&lt;br&gt;- artifactId: infrastructuredomain&lt;br&gt;groupId: com.cinerikuy&lt;br style=&quot;border-color: var(--border-color);&quot;&gt;artifactId: apigateway&lt;br style=&quot;border-color: var(--border-color);&quot;&gt;dependencies:&lt;br&gt;- artifactId:&amp;nbsp;spring-cloud-starter-gateway&lt;br&gt;- artifactId:&amp;nbsp;spring-cloud-starter-netflix-eureka-client&lt;br&gt;- artifactId: lombok (1.18.24)&lt;br&gt;plugins:&lt;br&gt;- artifactId:&amp;nbsp;spring-boot-maven-plugin" style="rounded=0;whiteSpace=wrap;html=1;align=left;verticalAlign=top;container=0;" vertex="1" parent="KEB4Dp1MF8ZIiS9gSXZJ-320">
          <mxGeometry width="300" height="186" as="geometry" />
        </mxCell>
        <mxCell id="KEB4Dp1MF8ZIiS9gSXZJ-318" value="api&lt;br&gt;gateway" style="sketch=0;pointerEvents=1;shadow=0;dashed=0;html=1;strokeColor=none;labelPosition=center;verticalLabelPosition=bottom;verticalAlign=top;outlineConnect=0;align=center;shape=mxgraph.office.concepts.folder;fillColor=#2072B8;" vertex="1" parent="KEB4Dp1MF8ZIiS9gSXZJ-320">
          <mxGeometry x="237.71626297577853" y="10" width="51.903114186851205" height="45" as="geometry" />
        </mxCell>
        <mxCell id="KEB4Dp1MF8ZIiS9gSXZJ-321" value="" style="group" vertex="1" connectable="0" parent="1">
          <mxGeometry x="1420" y="1183" width="300" height="200" as="geometry" />
        </mxCell>
        <mxCell id="KEB4Dp1MF8ZIiS9gSXZJ-302" value="&lt;b&gt;&lt;u&gt;configserver&lt;br&gt;&lt;/u&gt;&lt;/b&gt;parent&lt;br&gt;- groupId: com.cinerikuy&lt;br&gt;- artifactId: infrastructuredomain&lt;br&gt;groupId: com.cinerikuy&lt;br style=&quot;border-color: var(--border-color);&quot;&gt;artifactId: configserver&lt;br style=&quot;border-color: var(--border-color);&quot;&gt;dependencies:&lt;br&gt;- artifactId:&amp;nbsp;spring-cloud-config-server&lt;br&gt;- artifactId:&amp;nbsp;spring-cloud-starter-netflix-eureka-client&lt;br&gt;- artifactId: spring-boot-starter-web&lt;br&gt;- artifactId: spring-boot-starter-security&lt;br&gt;plugins:&lt;br&gt;- artifactId:&amp;nbsp;spring-boot-maven-plugin" style="rounded=0;whiteSpace=wrap;html=1;align=left;verticalAlign=top;container=0;" vertex="1" parent="KEB4Dp1MF8ZIiS9gSXZJ-321">
          <mxGeometry width="300" height="200" as="geometry" />
        </mxCell>
        <mxCell id="KEB4Dp1MF8ZIiS9gSXZJ-303" value="config&lt;br&gt;server" style="sketch=0;pointerEvents=1;shadow=0;dashed=0;html=1;strokeColor=none;labelPosition=center;verticalLabelPosition=bottom;verticalAlign=top;outlineConnect=0;align=center;shape=mxgraph.office.concepts.folder;fillColor=#2072B8;container=0;" vertex="1" parent="KEB4Dp1MF8ZIiS9gSXZJ-321">
          <mxGeometry x="237.71626297577853" y="10" width="51.903114186851205" height="45" as="geometry" />
        </mxCell>
        <mxCell id="KEB4Dp1MF8ZIiS9gSXZJ-322" value="" style="group" vertex="1" connectable="0" parent="1">
          <mxGeometry x="1760" y="1183" width="300" height="200" as="geometry" />
        </mxCell>
        <mxCell id="KEB4Dp1MF8ZIiS9gSXZJ-299" value="&lt;b&gt;&lt;u&gt;adminserver&lt;br&gt;&lt;/u&gt;&lt;/b&gt;parent&lt;br&gt;- groupId: com.cinerikuy&lt;br&gt;- artifactId: infrastructuredomain&lt;br&gt;groupId: com.cinerikuy&lt;br style=&quot;border-color: var(--border-color);&quot;&gt;artifactId: adminserver&lt;br style=&quot;border-color: var(--border-color);&quot;&gt;dependencies:&lt;br&gt;- artifactId:&amp;nbsp;spring-boot-admin-starter-server (2.7.5)&lt;br&gt;- artifactId:&amp;nbsp;spring-cloud-starter-netflix-eureka-client&lt;br&gt;- artifactId: spring-boot-starter-web&lt;br&gt;- artifactId: spring-boot-starter-security&lt;br&gt;plugins:&lt;br&gt;- artifactId:&amp;nbsp;spring-boot-maven-plugin" style="rounded=0;whiteSpace=wrap;html=1;align=left;verticalAlign=top;container=0;" vertex="1" parent="KEB4Dp1MF8ZIiS9gSXZJ-322">
          <mxGeometry width="300" height="200" as="geometry" />
        </mxCell>
        <mxCell id="KEB4Dp1MF8ZIiS9gSXZJ-301" value="admin&lt;br&gt;server" style="sketch=0;pointerEvents=1;shadow=0;dashed=0;html=1;strokeColor=none;labelPosition=center;verticalLabelPosition=bottom;verticalAlign=top;outlineConnect=0;align=center;shape=mxgraph.office.concepts.folder;fillColor=#2072B8;container=0;" vertex="1" parent="KEB4Dp1MF8ZIiS9gSXZJ-322">
          <mxGeometry x="237.71626297577853" y="11" width="51.903114186851205" height="45" as="geometry" />
        </mxCell>
        <mxCell id="KEB4Dp1MF8ZIiS9gSXZJ-325" value="" style="group" vertex="1" connectable="0" parent="1">
          <mxGeometry x="1080" y="1183" width="300" height="160" as="geometry" />
        </mxCell>
        <mxCell id="KEB4Dp1MF8ZIiS9gSXZJ-298" value="&lt;b&gt;&lt;u&gt;eurekaserver&lt;br&gt;&lt;/u&gt;&lt;/b&gt;parent&lt;br&gt;- groupId: com.cinerikuy&lt;br&gt;- artifactId: infrastructuredomain&lt;br&gt;groupId: com.cinerikuy&lt;br style=&quot;border-color: var(--border-color);&quot;&gt;artifactId: eurekaserver&lt;br style=&quot;border-color: var(--border-color);&quot;&gt;dependencies:&lt;br&gt;- artifactId: spring-cloud-starter-netflix-eureka-server&lt;br&gt;plugins:&lt;br&gt;- artifactId:&amp;nbsp;spring-boot-maven-plugin" style="rounded=0;whiteSpace=wrap;html=1;align=left;verticalAlign=top;container=0;" vertex="1" parent="KEB4Dp1MF8ZIiS9gSXZJ-325">
          <mxGeometry width="300" height="160" as="geometry" />
        </mxCell>
        <mxCell id="KEB4Dp1MF8ZIiS9gSXZJ-300" value="eureka&lt;br&gt;server" style="sketch=0;pointerEvents=1;shadow=0;dashed=0;html=1;strokeColor=none;labelPosition=center;verticalLabelPosition=bottom;verticalAlign=top;outlineConnect=0;align=center;shape=mxgraph.office.concepts.folder;fillColor=#2072B8;container=0;" vertex="1" parent="KEB4Dp1MF8ZIiS9gSXZJ-325">
          <mxGeometry x="237.71626297577853" y="10" width="51.903114186851205" height="45" as="geometry" />
        </mxCell>
        <mxCell id="KEB4Dp1MF8ZIiS9gSXZJ-337" value="&lt;b&gt;&lt;u&gt;customer&lt;br&gt;&lt;/u&gt;&lt;/b&gt;parent&lt;br&gt;- groupId: com.cinerikuy&lt;br&gt;- artifactId: businessdomain&lt;br&gt;groupId: com.cinerikuy&lt;br style=&quot;border-color: var(--border-color);&quot;&gt;artifactId: customer&lt;br style=&quot;border-color: var(--border-color);&quot;&gt;plugins:&lt;br&gt;- artifactId:&amp;nbsp;spring-boot-maven-plugin" style="rounded=0;whiteSpace=wrap;html=1;align=left;verticalAlign=top;container=0;" vertex="1" parent="1">
          <mxGeometry x="100" y="1383" width="220" height="130" as="geometry" />
        </mxCell>
        <mxCell id="KEB4Dp1MF8ZIiS9gSXZJ-339" value="customer" style="sketch=0;pointerEvents=1;shadow=0;dashed=0;html=1;strokeColor=none;labelPosition=center;verticalLabelPosition=bottom;verticalAlign=top;outlineConnect=0;align=center;shape=mxgraph.office.concepts.folder;fillColor=#7FBA42;" vertex="1" parent="1">
          <mxGeometry x="260" y="1393" width="50" height="45" as="geometry" />
        </mxCell>
        <mxCell id="KEB4Dp1MF8ZIiS9gSXZJ-342" value="&lt;b&gt;&lt;u&gt;transaction&lt;br&gt;&lt;/u&gt;&lt;/b&gt;parent&lt;br&gt;- groupId: com.cinerikuy&lt;br&gt;- artifactId: businessdomain&lt;br&gt;groupId: com.cinerikuy&lt;br style=&quot;border-color: var(--border-color);&quot;&gt;artifactId: transaction&lt;br style=&quot;border-color: var(--border-color);&quot;&gt;plugins:&lt;br&gt;- artifactId:&amp;nbsp;spring-boot-maven-plugin" style="rounded=0;whiteSpace=wrap;html=1;align=left;verticalAlign=top;container=0;" vertex="1" parent="1">
          <mxGeometry x="360" y="1383" width="220" height="130" as="geometry" />
        </mxCell>
        <mxCell id="KEB4Dp1MF8ZIiS9gSXZJ-343" value="&lt;b&gt;&lt;u&gt;billing&lt;br&gt;&lt;/u&gt;&lt;/b&gt;parent&lt;br&gt;- groupId: com.cinerikuy&lt;br&gt;- artifactId: businessdomain&lt;br&gt;groupId: com.cinerikuy&lt;br style=&quot;border-color: var(--border-color);&quot;&gt;artifactId: billing&lt;br style=&quot;border-color: var(--border-color);&quot;&gt;plugins:&lt;br&gt;- artifactId:&amp;nbsp;spring-boot-maven-plugin" style="rounded=0;whiteSpace=wrap;html=1;align=left;verticalAlign=top;container=0;" vertex="1" parent="1">
          <mxGeometry x="620" y="1383" width="220" height="130" as="geometry" />
        </mxCell>
        <mxCell id="KEB4Dp1MF8ZIiS9gSXZJ-344" value="transaction" style="sketch=0;pointerEvents=1;shadow=0;dashed=0;html=1;strokeColor=none;labelPosition=center;verticalLabelPosition=bottom;verticalAlign=top;outlineConnect=0;align=center;shape=mxgraph.office.concepts.folder;fillColor=#7FBA42;" vertex="1" parent="1">
          <mxGeometry x="520" y="1393" width="50" height="45" as="geometry" />
        </mxCell>
        <mxCell id="KEB4Dp1MF8ZIiS9gSXZJ-345" value="billing" style="sketch=0;pointerEvents=1;shadow=0;dashed=0;html=1;strokeColor=none;labelPosition=center;verticalLabelPosition=bottom;verticalAlign=top;outlineConnect=0;align=center;shape=mxgraph.office.concepts.folder;fillColor=#7FBA42;" vertex="1" parent="1">
          <mxGeometry x="780" y="1393" width="50" height="45" as="geometry" />
        </mxCell>
        <mxCell id="KEB4Dp1MF8ZIiS9gSXZJ-346" value="&lt;b&gt;&lt;u&gt;cinema&lt;br&gt;&lt;/u&gt;&lt;/b&gt;parent&lt;br&gt;- groupId: com.cinerikuy&lt;br&gt;- artifactId: businessdomain&lt;br&gt;groupId: com.cinerikuy&lt;br style=&quot;border-color: var(--border-color);&quot;&gt;artifactId: cinema&lt;br style=&quot;border-color: var(--border-color);&quot;&gt;plugins:&lt;br&gt;- artifactId:&amp;nbsp;spring-boot-maven-plugin" style="rounded=0;whiteSpace=wrap;html=1;align=left;verticalAlign=top;container=0;" vertex="1" parent="1">
          <mxGeometry x="230" y="1543" width="220" height="130" as="geometry" />
        </mxCell>
        <mxCell id="KEB4Dp1MF8ZIiS9gSXZJ-347" value="cinema" style="sketch=0;pointerEvents=1;shadow=0;dashed=0;html=1;strokeColor=none;labelPosition=center;verticalLabelPosition=bottom;verticalAlign=top;outlineConnect=0;align=center;shape=mxgraph.office.concepts.folder;fillColor=#7FBA42;" vertex="1" parent="1">
          <mxGeometry x="390" y="1553" width="50" height="45" as="geometry" />
        </mxCell>
        <mxCell id="KEB4Dp1MF8ZIiS9gSXZJ-348" value="&lt;b&gt;&lt;u&gt;movie&lt;br&gt;&lt;/u&gt;&lt;/b&gt;parent&lt;br&gt;- groupId: com.cinerikuy&lt;br&gt;- artifactId: businessdomain&lt;br&gt;groupId: com.cinerikuy&lt;br style=&quot;border-color: var(--border-color);&quot;&gt;artifactId: movie&lt;br style=&quot;border-color: var(--border-color);&quot;&gt;plugins:&lt;br&gt;- artifactId:&amp;nbsp;spring-boot-maven-plugin" style="rounded=0;whiteSpace=wrap;html=1;align=left;verticalAlign=top;container=0;" vertex="1" parent="1">
          <mxGeometry x="490" y="1543" width="220" height="130" as="geometry" />
        </mxCell>
        <mxCell id="KEB4Dp1MF8ZIiS9gSXZJ-349" value="&lt;b&gt;&lt;u&gt;product&lt;br&gt;&lt;/u&gt;&lt;/b&gt;parent&lt;br&gt;- groupId: com.cinerikuy&lt;br&gt;- artifactId: businessdomain&lt;br&gt;groupId: com.cinerikuy&lt;br style=&quot;border-color: var(--border-color);&quot;&gt;artifactId: product&lt;br style=&quot;border-color: var(--border-color);&quot;&gt;plugins:&lt;br&gt;- artifactId:&amp;nbsp;spring-boot-maven-plugin" style="rounded=0;whiteSpace=wrap;html=1;align=left;verticalAlign=top;container=0;" vertex="1" parent="1">
          <mxGeometry x="750" y="1543" width="220" height="130" as="geometry" />
        </mxCell>
        <mxCell id="KEB4Dp1MF8ZIiS9gSXZJ-350" value="movie" style="sketch=0;pointerEvents=1;shadow=0;dashed=0;html=1;strokeColor=none;labelPosition=center;verticalLabelPosition=bottom;verticalAlign=top;outlineConnect=0;align=center;shape=mxgraph.office.concepts.folder;fillColor=#7FBA42;" vertex="1" parent="1">
          <mxGeometry x="650" y="1553" width="50" height="45" as="geometry" />
        </mxCell>
        <mxCell id="KEB4Dp1MF8ZIiS9gSXZJ-351" value="product" style="sketch=0;pointerEvents=1;shadow=0;dashed=0;html=1;strokeColor=none;labelPosition=center;verticalLabelPosition=bottom;verticalAlign=top;outlineConnect=0;align=center;shape=mxgraph.office.concepts.folder;fillColor=#7FBA42;" vertex="1" parent="1">
          <mxGeometry x="910" y="1553" width="50" height="45" as="geometry" />
        </mxCell>
        <mxCell id="KEB4Dp1MF8ZIiS9gSXZJ-289" value="&lt;b&gt;&lt;u&gt;cinerikuyparent&lt;br&gt;&lt;/u&gt;&lt;/b&gt;groupId: com.cinerikuy&lt;br&gt;artifactId: cinerikuyparent&lt;br&gt;packaging: pom&lt;br&gt;properties:&lt;br&gt;- maven.compiler.source/target: 8&lt;br&gt;- spring-boot.version: 2.7.5&lt;br&gt;- project.build.sourceEncoding: UTF-8&lt;br&gt;- postgres.version: 42.5.0&lt;br&gt;dependencyManagement&lt;br&gt;- artifactId: spring-boot-dependencies (2.7.5)&lt;br&gt;dependencies:&lt;br&gt;- artifactId: spring-boot-starter&lt;br&gt;- artifactId: spring-boot-starter-test&lt;br&gt;plugins&lt;br&gt;-artifactId: maven-surefire-plugin" style="rounded=0;whiteSpace=wrap;html=1;align=left;verticalAlign=top;" vertex="1" parent="1">
          <mxGeometry x="850" y="643" width="323" height="240" as="geometry" />
        </mxCell>
        <mxCell id="KEB4Dp1MF8ZIiS9gSXZJ-293" value="cinerikuyparent" style="sketch=0;pointerEvents=1;shadow=0;dashed=0;html=1;strokeColor=none;fillColor=#505050;labelPosition=center;verticalLabelPosition=bottom;verticalAlign=top;outlineConnect=0;align=center;shape=mxgraph.office.concepts.folder;" vertex="1" parent="1">
          <mxGeometry x="1101" y="655" width="50" height="45" as="geometry" />
        </mxCell>
        <mxCell id="KEB4Dp1MF8ZIiS9gSXZJ-364" value="1:N" style="edgeStyle=orthogonalEdgeStyle;rounded=0;orthogonalLoop=1;jettySize=auto;html=1;exitX=1;exitY=0.5;exitDx=0;exitDy=0;entryX=0;entryY=0.5;entryDx=0;entryDy=0;endArrow=none;endFill=0;" edge="1" source="KEB4Dp1MF8ZIiS9gSXZJ-365" target="KEB4Dp1MF8ZIiS9gSXZJ-368" parent="1">
          <mxGeometry relative="1" as="geometry" />
        </mxCell>
        <mxCell id="KEB4Dp1MF8ZIiS9gSXZJ-365" value="&lt;b&gt;&lt;u&gt;Customer&lt;/u&gt;&lt;/b&gt;&lt;br&gt;id: long&lt;br&gt;dni: String&lt;br&gt;name: String&lt;br&gt;transactions: List&amp;lt;?&amp;gt; (*)" style="rounded=0;whiteSpace=wrap;html=1;align=left;verticalAlign=top;fillColor=#d5e8d4;strokeColor=#82b366;" vertex="1" parent="1">
          <mxGeometry x="1510" y="-277.5" width="160" height="97.5" as="geometry" />
        </mxCell>
        <mxCell id="KEB4Dp1MF8ZIiS9gSXZJ-366" value="1:N" style="edgeStyle=orthogonalEdgeStyle;rounded=0;orthogonalLoop=1;jettySize=auto;html=1;exitX=1;exitY=0.75;exitDx=0;exitDy=0;entryX=0;entryY=0.5;entryDx=0;entryDy=0;endArrow=none;endFill=0;" edge="1" source="KEB4Dp1MF8ZIiS9gSXZJ-368" target="KEB4Dp1MF8ZIiS9gSXZJ-379" parent="1">
          <mxGeometry relative="1" as="geometry" />
        </mxCell>
        <mxCell id="KEB4Dp1MF8ZIiS9gSXZJ-476" style="edgeStyle=orthogonalEdgeStyle;rounded=0;orthogonalLoop=1;jettySize=auto;html=1;exitX=1;exitY=0.25;exitDx=0;exitDy=0;entryX=0;entryY=0.75;entryDx=0;entryDy=0;" edge="1" parent="1" source="KEB4Dp1MF8ZIiS9gSXZJ-368" target="KEB4Dp1MF8ZIiS9gSXZJ-369">
          <mxGeometry relative="1" as="geometry" />
        </mxCell>
        <mxCell id="KEB4Dp1MF8ZIiS9gSXZJ-368" value="&lt;b&gt;&lt;u&gt;Transaction&lt;/u&gt;&lt;/b&gt;&lt;br&gt;id: long&lt;br&gt;code: String&lt;br&gt;dni: String&lt;br&gt;cinemaCode: String (excluded)&lt;br&gt;cinemaName: String (excluded)&lt;br&gt;movieId: long&lt;br style=&quot;border-color: var(--border-color);&quot;&gt;movieCode: String&lt;br&gt;movieName: String&lt;br&gt;products: List&amp;lt;TransacP&amp;gt; (*)" style="rounded=0;whiteSpace=wrap;html=1;align=left;verticalAlign=top;fillColor=#d5e8d4;strokeColor=#82b366;" vertex="1" parent="1">
          <mxGeometry x="1750" y="-230" width="180" height="160" as="geometry" />
        </mxCell>
        <mxCell id="KEB4Dp1MF8ZIiS9gSXZJ-369" value="&lt;b&gt;&lt;u&gt;Movie&lt;br&gt;&lt;/u&gt;&lt;/b&gt;id: long&lt;br&gt;code: String&lt;br&gt;name: String&lt;br&gt;transactionCode: String" style="rounded=0;whiteSpace=wrap;html=1;align=left;verticalAlign=top;fillColor=#d5e8d4;strokeColor=#82b366;" vertex="1" parent="1">
          <mxGeometry x="2180" y="-310" width="160" height="90" as="geometry" />
        </mxCell>
        <mxCell id="KEB4Dp1MF8ZIiS9gSXZJ-370" value="&lt;b&gt;&lt;u&gt;Product&lt;br&gt;&lt;/u&gt;&lt;/b&gt;id: long&lt;br&gt;code: String&lt;br&gt;name: String&lt;br&gt;transactionCode: String" style="rounded=0;whiteSpace=wrap;html=1;align=left;verticalAlign=top;fillColor=#d5e8d4;strokeColor=#82b366;" vertex="1" parent="1">
          <mxGeometry x="2180" y="-180" width="160" height="90" as="geometry" />
        </mxCell>
        <mxCell id="KEB4Dp1MF8ZIiS9gSXZJ-371" value="1:N" style="edgeStyle=orthogonalEdgeStyle;rounded=0;orthogonalLoop=1;jettySize=auto;html=1;entryX=0;entryY=0.5;entryDx=0;entryDy=0;endArrow=none;endFill=0;" edge="1" source="KEB4Dp1MF8ZIiS9gSXZJ-373" target="KEB4Dp1MF8ZIiS9gSXZJ-382" parent="1">
          <mxGeometry relative="1" as="geometry" />
        </mxCell>
        <mxCell id="KEB4Dp1MF8ZIiS9gSXZJ-372" value="1:N" style="edgeStyle=orthogonalEdgeStyle;rounded=0;orthogonalLoop=1;jettySize=auto;html=1;endArrow=none;endFill=0;" edge="1" source="KEB4Dp1MF8ZIiS9gSXZJ-373" target="KEB4Dp1MF8ZIiS9gSXZJ-368" parent="1">
          <mxGeometry relative="1" as="geometry" />
        </mxCell>
        <mxCell id="KEB4Dp1MF8ZIiS9gSXZJ-373" value="&lt;b&gt;&lt;u&gt;Cinema&lt;br&gt;&lt;/u&gt;&lt;/b&gt;id: long&lt;br&gt;cinemaCode:String&lt;br&gt;name: String&lt;br&gt;movies: List&amp;lt;?&amp;gt; (*)" style="rounded=0;whiteSpace=wrap;html=1;align=left;verticalAlign=top;" vertex="1" parent="1">
          <mxGeometry x="1764.5" y="-360" width="160" height="80" as="geometry" />
        </mxCell>
        <mxCell id="KEB4Dp1MF8ZIiS9gSXZJ-374" value="1:N" style="edgeStyle=orthogonalEdgeStyle;rounded=0;orthogonalLoop=1;jettySize=auto;html=1;entryX=0.438;entryY=1.011;entryDx=0;entryDy=0;entryPerimeter=0;endArrow=none;endFill=0;" edge="1" source="KEB4Dp1MF8ZIiS9gSXZJ-375" target="KEB4Dp1MF8ZIiS9gSXZJ-365" parent="1">
          <mxGeometry relative="1" as="geometry" />
        </mxCell>
        <mxCell id="KEB4Dp1MF8ZIiS9gSXZJ-375" value="&lt;b&gt;&lt;u&gt;Billing&lt;br&gt;&lt;/u&gt;&lt;/b&gt;id: long&lt;br&gt;number: String&lt;br&gt;dni: String&lt;br&gt;transactionId: long" style="rounded=0;whiteSpace=wrap;html=1;align=left;verticalAlign=top;" vertex="1" parent="1">
          <mxGeometry x="1820" y="-50" width="160" height="80" as="geometry" />
        </mxCell>
        <mxCell id="KEB4Dp1MF8ZIiS9gSXZJ-378" value="N:1" style="edgeStyle=orthogonalEdgeStyle;rounded=0;orthogonalLoop=1;jettySize=auto;html=1;exitX=1;exitY=0.5;exitDx=0;exitDy=0;entryX=0;entryY=0.5;entryDx=0;entryDy=0;endArrow=none;endFill=0;" edge="1" source="KEB4Dp1MF8ZIiS9gSXZJ-379" target="KEB4Dp1MF8ZIiS9gSXZJ-370" parent="1">
          <mxGeometry relative="1" as="geometry" />
        </mxCell>
        <mxCell id="KEB4Dp1MF8ZIiS9gSXZJ-379" value="&lt;b&gt;&lt;u&gt;TransactionProduct&lt;br&gt;&lt;/u&gt;&lt;/b&gt;id: long&lt;br&gt;productId: long&lt;br style=&quot;border-color: var(--border-color);&quot;&gt;productName: String&lt;br&gt;transactionId: Transaction&lt;br&gt;" style="rounded=0;whiteSpace=wrap;html=1;align=left;verticalAlign=top;" vertex="1" parent="1">
          <mxGeometry x="1980" y="-180" width="160" height="90" as="geometry" />
        </mxCell>
        <mxCell id="KEB4Dp1MF8ZIiS9gSXZJ-380" value="1:1" style="edgeStyle=orthogonalEdgeStyle;rounded=0;orthogonalLoop=1;jettySize=auto;html=1;endArrow=none;endFill=0;exitX=0.5;exitY=1;exitDx=0;exitDy=0;entryX=0.5;entryY=0;entryDx=0;entryDy=0;" edge="1" source="KEB4Dp1MF8ZIiS9gSXZJ-368" target="KEB4Dp1MF8ZIiS9gSXZJ-375" parent="1">
          <mxGeometry relative="1" as="geometry">
            <mxPoint x="1855" y="-310" as="sourcePoint" />
            <mxPoint x="1855" y="-270" as="targetPoint" />
          </mxGeometry>
        </mxCell>
        <mxCell id="KEB4Dp1MF8ZIiS9gSXZJ-381" value="N:1" style="edgeStyle=orthogonalEdgeStyle;rounded=0;orthogonalLoop=1;jettySize=auto;html=1;exitX=1;exitY=0.5;exitDx=0;exitDy=0;entryX=0;entryY=0.25;entryDx=0;entryDy=0;endArrow=none;endFill=0;" edge="1" source="KEB4Dp1MF8ZIiS9gSXZJ-382" target="KEB4Dp1MF8ZIiS9gSXZJ-369" parent="1">
          <mxGeometry relative="1" as="geometry" />
        </mxCell>
        <mxCell id="KEB4Dp1MF8ZIiS9gSXZJ-382" value="&lt;b&gt;&lt;u&gt;CinemaMovie&lt;br&gt;&lt;/u&gt;&lt;/b&gt;id: long&lt;br&gt;movieId: long&lt;br&gt;movieName: String&lt;br&gt;CinemaCode: String" style="rounded=0;whiteSpace=wrap;html=1;align=left;verticalAlign=top;" vertex="1" parent="1">
          <mxGeometry x="1980" y="-440" width="160" height="90" as="geometry" />
        </mxCell>
        <mxCell id="KEB4Dp1MF8ZIiS9gSXZJ-383" value="PostgreSql" style="image;aspect=fixed;html=1;points=[];align=left;fontSize=12;image=img/lib/azure2/databases/Azure_Database_PostgreSQL_Server.svg;labelBackgroundColor=none;labelPosition=right;verticalLabelPosition=middle;verticalAlign=middle;spacingLeft=2;" vertex="1" parent="1">
          <mxGeometry x="-88" y="569.33" width="38" height="50.67" as="geometry" />
        </mxCell>
        <mxCell id="KEB4Dp1MF8ZIiS9gSXZJ-400" style="edgeStyle=orthogonalEdgeStyle;rounded=0;orthogonalLoop=1;jettySize=auto;html=1;" edge="1" parent="1" source="KEB4Dp1MF8ZIiS9gSXZJ-399" target="KEB4Dp1MF8ZIiS9gSXZJ-383">
          <mxGeometry relative="1" as="geometry" />
        </mxCell>
        <mxCell id="KEB4Dp1MF8ZIiS9gSXZJ-399" value="PgAdmin" style="text;html=1;strokeColor=none;fillColor=none;align=center;verticalAlign=middle;whiteSpace=wrap;rounded=0;fontStyle=1;fontColor=#007FFF;" vertex="1" parent="1">
          <mxGeometry x="-190" y="579.66" width="60" height="30" as="geometry" />
        </mxCell>
        <mxCell id="KEB4Dp1MF8ZIiS9gSXZJ-474" value="&lt;b&gt;&lt;u&gt;Puertos previos al uso del API Gateway&lt;br&gt;&lt;/u&gt;&lt;/b&gt;&lt;br&gt;API Gateway&lt;span style=&quot;white-space: pre;&quot;&gt;	&lt;/span&gt;&lt;span style=&quot;white-space: pre;&quot;&gt;	&lt;/span&gt;8080&lt;br&gt;MS-Billing&lt;span style=&quot;white-space: pre;&quot;&gt;	&lt;/span&gt;&lt;span style=&quot;white-space: pre;&quot;&gt;	&lt;/span&gt;9087&lt;br&gt;MS-Cinema&lt;span style=&quot;white-space: pre;&quot;&gt;	&lt;/span&gt;&lt;span style=&quot;white-space: pre;&quot;&gt;	&lt;/span&gt;9088&lt;br&gt;MS-Movie&lt;span style=&quot;white-space: pre;&quot;&gt;	&lt;/span&gt;&lt;span style=&quot;white-space: pre;&quot;&gt;	&lt;/span&gt;9089&lt;br&gt;Eureka-server&lt;span style=&quot;white-space: pre;&quot;&gt;	&lt;/span&gt;&lt;span style=&quot;white-space: pre;&quot;&gt;	&lt;/span&gt;9090&lt;br&gt;MS-customer&lt;span style=&quot;white-space: pre;&quot;&gt;	&lt;/span&gt;&lt;span style=&quot;white-space: pre;&quot;&gt;	&lt;/span&gt;9091&lt;br&gt;MS-product&lt;span style=&quot;white-space: pre;&quot;&gt;	&lt;/span&gt;&lt;span style=&quot;white-space: pre;&quot;&gt;	&lt;/span&gt;9092&lt;br&gt;MS-transaction&lt;span style=&quot;white-space: pre;&quot;&gt;	&lt;/span&gt;9093&lt;br&gt;Admin-server&lt;span style=&quot;white-space: pre;&quot;&gt;	&lt;/span&gt;&lt;span style=&quot;white-space: pre;&quot;&gt;	&lt;/span&gt;9094&lt;br&gt;Config-server&lt;span style=&quot;white-space: pre;&quot;&gt;	&lt;/span&gt;&lt;span style=&quot;white-space: pre;&quot;&gt;	&lt;/span&gt;9095&lt;br&gt;PgAdmin&lt;span style=&quot;white-space: pre;&quot;&gt;	&lt;/span&gt;&lt;span style=&quot;white-space: pre;&quot;&gt;	&lt;/span&gt;&lt;span style=&quot;white-space: pre;&quot;&gt;	&lt;/span&gt;9096&lt;br&gt;Keycloak-server&lt;span style=&quot;white-space: pre;&quot;&gt;	&lt;/span&gt;9097&lt;br&gt;Keycloak-client&lt;span style=&quot;white-space: pre;&quot;&gt;	&lt;/span&gt;9098&lt;br&gt;Postgres-DB&lt;span style=&quot;white-space: pre;&quot;&gt;	&lt;/span&gt;&lt;span style=&quot;white-space: pre;&quot;&gt;	&lt;/span&gt;3432" style="rounded=0;whiteSpace=wrap;html=1;align=left;verticalAlign=top;" vertex="1" parent="1">
          <mxGeometry x="-643" width="230" height="250" as="geometry" />
        </mxCell>
      </root>
    </mxGraphModel>
  </diagram>
</mxfile>
